<?xml version="1.0" encoding="UTF-8"?>
<svg version="1.1" xmlns="http://www.w3.org/2000/svg" width="188" height="207">
<path d="M0 0 C1.35432679 0.14433868 2.70845225 0.29056661 4.0625 0.4375 C5.19365234 0.55931641 5.19365234 0.55931641 6.34765625 0.68359375 C8.33068161 0.92015495 10.30943095 1.19306711 12.28515625 1.484375 C15.55358113 1.9380365 18.81578471 2.28712418 22.10058594 2.59521484 C76.56777706 7.79871421 76.56777706 7.79871421 90.5 22.3125 C95.15378577 27.99622196 97.6908947 34.24141957 97.34765625 41.703125 C96.0486684 50.28520205 93.42674408 58.87852627 87 65 C84.8125 66.20703125 84.8125 66.20703125 83 67 C83 67.66 83 68.32 83 69 C69.1275333 77.70882631 52.90915845 81.61219734 37.31494141 86.04833984 C31.48960207 87.72069017 25.68343287 89.45752543 19.875 91.1875 C13.03022708 93.2221344 6.18501308 95.24849745 -0.6875 97.1875 C-4.77736211 98.34222475 -8.83681691 99.56563732 -12.88720703 100.85009766 C-16.25296352 101.91697593 -19.62450948 102.9643568 -23 104 C-23.65709961 104.20189941 -24.31419922 104.40379883 -24.99121094 104.61181641 C-42.9825938 110.04847871 -42.9825938 110.04847871 -51.9375 107 C-56.98202505 102.10833935 -59.09651028 95.33780332 -59.3125 88.4375 C-59.20632145 80.43871583 -56.53588696 72.40500187 -50.9375 66.5546875 C-42.84909307 60.06439323 -32.82803867 57.59394081 -23 55 C-20.45560061 54.25799594 -17.91445993 53.5084117 -15.375 52.75 C-6.38169151 50.08833656 2.63906377 47.52301356 11.66088867 44.95996094 C16.91820174 43.46389332 22.17151208 41.96148962 27.40234375 40.375 C28.18287109 40.13910156 28.96339844 39.90320313 29.76757812 39.66015625 C31.16005887 39.23652124 32.55086353 38.80731409 33.93945312 38.37109375 C37.39255501 37.32158563 40.3890158 36.7807372 44 37 C43.08538833 29.45445374 39.05890429 24.45468733 33.40625 19.76171875 C24.15722209 12.99010903 13.77236011 7.85795405 3.00390625 4.02734375 C1 3 1 3 0 0 Z " fill="#268AD7" transform="translate(77,84)"/>
<path d="M0 0 C3.82869289 2.85115428 5.55477775 5.52043668 7 10 C8.40122387 22.30112879 6.37466493 30.98307634 -1.25 40.9375 C-10.79062144 48.09296608 -22.17611545 50.51221732 -33.5 53.5 C-35.22943502 53.96384434 -36.95860381 54.42868252 -38.6875 54.89453125 C-42.11417745 55.8169822 -45.54213711 56.7344372 -48.97094727 57.64892578 C-54.59503821 59.15372242 -60.20393778 60.71132538 -65.81114197 62.27767944 C-69.97367847 63.4399068 -74.14090093 64.58028236 -78.31640625 65.6953125 C-80.06516093 66.17166665 -81.81386147 66.64821965 -83.5625 67.125 C-84.93051758 67.48271484 -84.93051758 67.48271484 -86.32617188 67.84765625 C-87.62071289 68.20537109 -87.62071289 68.20537109 -88.94140625 68.5703125 C-89.70138916 68.77414551 -90.46137207 68.97797852 -91.24438477 69.18798828 C-91.82373779 69.45595215 -92.40309082 69.72391602 -93 70 C-94.36738103 74.10214308 -93.15551256 75.90750279 -91.3828125 79.70703125 C-88.89370289 83.83445311 -85.2970894 86.8514553 -81 89 C-81 89.66 -81 90.32 -81 91 C-80.32710938 91.09667969 -79.65421875 91.19335938 -78.9609375 91.29296875 C-75.2832605 92.17114756 -72.03246489 93.71950187 -68.625 95.3125 C-60.92125908 98.81640737 -53.24054032 101.09378306 -45 103 C-45 103.66 -45 104.32 -45 105 C-84.94779637 105.4160562 -84.94779637 105.4160562 -104 103 C-105.23878906 102.86722656 -106.47757813 102.73445313 -107.75390625 102.59765625 C-120.03094729 101.07570901 -131.28072796 97.06024916 -140 88 C-145.81891844 80.07121967 -146.99390277 71.53946243 -145.7265625 61.92578125 C-143.54893544 51.46906263 -136.21235749 44.32303051 -128 38 C-113.091511 28.80373097 -95.37347809 24.88869084 -78.67651367 20.19677734 C-72.99578302 18.59526933 -67.36701361 16.87388081 -61.75 15.0625 C-46.2296263 10.07492801 -30.46278095 5.85699273 -14.6953125 1.7265625 C-5.24621511 -0.82058549 -5.24621511 -0.82058549 0 0 Z " fill="#0F57B1" transform="translate(157,15)"/>
<path d="M0 0 C3.82869289 2.85115428 5.55477775 5.52043668 7 10 C8.40122387 22.30112879 6.37466493 30.98307634 -1.25 40.9375 C-10.79062144 48.09296608 -22.17611545 50.51221732 -33.5 53.5 C-35.22943502 53.96384434 -36.95860381 54.42868252 -38.6875 54.89453125 C-42.11417745 55.8169822 -45.54213711 56.7344372 -48.97094727 57.64892578 C-54.59503821 59.15372242 -60.20393778 60.71132538 -65.81114197 62.27767944 C-69.97367847 63.4399068 -74.14090093 64.58028236 -78.31640625 65.6953125 C-80.06516093 66.17166665 -81.81386147 66.64821965 -83.5625 67.125 C-84.93051758 67.48271484 -84.93051758 67.48271484 -86.32617188 67.84765625 C-87.62071289 68.20537109 -87.62071289 68.20537109 -88.94140625 68.5703125 C-89.70138916 68.77414551 -90.46137207 68.97797852 -91.24438477 69.18798828 C-91.82373779 69.45595215 -92.40309082 69.72391602 -93 70 C-94.18826921 73.56480762 -93.76813843 74.19969907 -92.25 77.5 C-91.90453125 78.2734375 -91.5590625 79.046875 -91.203125 79.84375 C-90.12003831 82.05818886 -90.12003831 82.05818886 -88.296875 83.53125 C-87.86890625 84.0159375 -87.4409375 84.500625 -87 85 C-87.3125 87.1875 -87.3125 87.1875 -88 89 C-94.83871031 83.05762551 -99.51349731 77.37574572 -100.22265625 68.08203125 C-99.9228062 58.81066769 -96.19168542 51.15946548 -89.9375 44.375 C-74.5446806 30.20275659 -54.32429569 21.11412584 -35.4375 12.625 C-34.33124268 12.12432007 -34.33124268 12.12432007 -33.20263672 11.61352539 C-29.85217773 10.1298161 -26.66697363 8.86945696 -23.09765625 8.0234375 C-19.90541431 7.3466506 -19.90541431 7.3466506 -18.81640625 4.984375 C-18.54699219 4.32953125 -18.27757812 3.6746875 -18 3 C-12.78778287 0.04677761 -5.88217258 -1.22212129 0 0 Z " fill="#04287A" transform="translate(157,15)"/>
<path d="M0 0 C61.59260028 1.75978858 61.59260028 1.75978858 79.5 20.3125 C84.15378577 25.99622196 86.6908947 32.24141957 86.34765625 39.703125 C85.0486684 48.28520205 82.42674408 56.87852627 76 63 C73.8125 64.20703125 73.8125 64.20703125 72 65 C72 65.66 72 66.32 72 67 C65.98767362 70.54349671 59.76209324 74.12028455 53 76 C51.515 75.505 51.515 75.505 50 75 C50.495 73.515 50.495 73.515 51 72 C50.05640625 72.45052734 50.05640625 72.45052734 49.09375 72.91015625 C43.12313559 75.56276356 39.39809693 76.42179932 33 75 C32.79375 75.639375 32.5875 76.27875 32.375 76.9375 C31 79 31 79 27.875 79.75 C26.92625 79.8325 25.9775 79.915 25 80 C25 78.68 25 77.36 25 76 C24.01 75.505 24.01 75.505 23 75 C23.99 73.515 23.99 73.515 25 72 C23.77190909 70.35444301 23.77190909 70.35444301 22 69 C18.87159275 69.47845241 16.20378192 70.74711993 13.3671875 72.109375 C12.47773437 72.53476563 11.58828125 72.96015625 10.671875 73.3984375 C9.74890625 73.84445313 8.8259375 74.29046875 7.875 74.75 C6.97523437 75.18054688 6.07546875 75.61109375 5.1484375 76.0546875 C4.25125 76.48523438 3.3540625 76.91578125 2.4296875 77.359375 C1.5334668 77.78927734 0.63724609 78.21917969 -0.28613281 78.66210938 C-2.12888528 79.57055517 -3.95628308 80.51069227 -5.76855469 81.47851562 C-6.64672852 81.94451172 -7.52490234 82.41050781 -8.4296875 82.890625 C-9.21327637 83.31891602 -9.99686523 83.74720703 -10.80419922 84.18847656 C-13.34083903 85.12596719 -14.50074334 84.92111596 -17 84 C-16.25878906 83.6596875 -15.51757812 83.319375 -14.75390625 82.96875 C-11.16677155 81.31787773 -7.58294804 79.65993072 -4 78 C-3.29407715 77.67370605 -2.5881543 77.34741211 -1.86083984 77.01123047 C22.54975649 66.47744189 22.54975649 66.47744189 39.8515625 47.26171875 C42.20978726 40.56403958 42.4451572 33.41851513 39.6640625 26.83984375 C33.26760794 15.92382858 22.88915026 8.6437999 10.69140625 5.3828125 C9.66853516 5.16238281 9.66853516 5.16238281 8.625 4.9375 C4.75363608 3.93628519 2.99280954 2.55571536 0 0 Z " fill="#329CDE" transform="translate(88,86)"/>
<path d="M0 0 C1.97304038 1.05698592 3.28548199 2.25330429 4.75 3.9375 C4.09 4.9275 3.43 5.9175 2.75 6.9375 C3.0621764 9.58382287 3.0621764 9.58382287 3.75 11.9375 C6.06 10.9475 8.37 9.9575 10.75 8.9375 C10.75 7.9475 10.75 6.9575 10.75 5.9375 C11.31847656 6.04449219 11.88695313 6.15148437 12.47265625 6.26171875 C18.35798877 7.17546821 21.45410796 6.58544602 26.75 3.9375 C27.74 3.9375 28.73 3.9375 29.75 3.9375 C30.245 5.4225 30.245 5.4225 30.75 6.9375 C26.83943935 9.45763909 23.35604235 11.17269418 18.84375 12.33203125 C12.22488047 14.07349173 5.64391279 15.93479291 -0.9375 17.8125 C-2.16758789 18.16328613 -3.39767578 18.51407227 -4.66503906 18.87548828 C-12.46732357 21.1113208 -20.23106374 23.43137356 -27.953125 25.9296875 C-30.36493061 26.66694561 -32.73770443 27.32198142 -35.18359375 27.91796875 C-39.20328752 28.89951067 -43.12412728 30.11077701 -47.0625 31.375 C-48.47105538 31.8160595 -49.87991082 32.25616185 -51.2890625 32.6953125 C-53.62340331 33.42389298 -55.94976842 34.16713977 -58.2734375 34.9296875 C-65.32377131 37.1006114 -71.90364024 37.25284454 -79.25 36.9375 C-74.51346635 34.55328411 -69.72355385 32.28268088 -64.9375 30 C-64.01259766 29.55720703 -63.08769531 29.11441406 -62.13476562 28.65820312 C-57.21276382 26.31089452 -52.27167587 24.06551959 -47.25 21.9375 C-36.85184353 17.33333037 -26.48515678 12.64821521 -16.3125 7.5625 C-15.38449585 7.09904175 -15.38449585 7.09904175 -14.43774414 6.6262207 C-11.38057183 5.07894973 -8.39845881 3.44796041 -5.44921875 1.70703125 C-2.25 -0.0625 -2.25 -0.0625 0 0 Z " fill="#065AB8" transform="translate(109.25,154.0625)"/>
<path d="M0 0 C-0.33 0.99 -0.66 1.98 -1 3 C-3.49407075 4.16833897 -5.92560262 5.16784503 -8.5 6.125 C-15.68354924 8.92362618 -22.44727982 12.1790141 -29.20117188 15.89111328 C-32.26405625 17.57029989 -35.25519125 19.1083846 -38.4765625 20.4765625 C-56.31232465 28.18825567 -72.59753758 39.49930152 -80.1875 57.875 C-80.455625 58.57625 -80.72375 59.2775 -81 60 C-82.60901821 55.97745449 -81.14680005 53.01380017 -80 49 C-80.26499604 46.66691552 -80.26499604 46.66691552 -81 45 C-80.21625 44.938125 -79.4325 44.87625 -78.625 44.8125 C-75.77635773 44.26680778 -75.77635773 44.26680778 -74.6875 41.5625 C-73.91362381 39.12023958 -73.91362381 39.12023958 -74 37 C-73.21625 36.855625 -72.4325 36.71125 -71.625 36.5625 C-69.03578982 36.12201075 -69.03578982 36.12201075 -67 35 C-66.62875 33.7934375 -66.62875 33.7934375 -66.25 32.5625 C-65 30 -65 30 -62.125 28.75 C-61.09375 28.5025 -60.0625 28.255 -59 28 C-57.824375 27.690625 -57.824375 27.690625 -56.625 27.375 C-56.08875 27.25125 -55.5525 27.1275 -55 27 C-55 25.68 -55 24.36 -55 23 C-55.99 23 -56.98 23 -58 23 C-58.33 22.34 -58.66 21.68 -59 21 C-59.99 21.33 -60.98 21.66 -62 22 C-62 22.99 -62 23.98 -62 25 C-64.31 25.99 -66.62 26.98 -69 28 C-69.33 27.01 -69.66 26.02 -70 25 C-72.31 26.32 -74.62 27.64 -77 29 C-78.32 28.01 -79.64 27.02 -81 26 C-79.68 25.34 -78.36 24.68 -77 24 C-77.33 23.34 -77.66 22.68 -78 22 C-60.89104993 16.59968895 -43.70662919 11.46967677 -26.47338867 6.48071289 C-20.10853982 4.63359144 -13.78132177 2.70917829 -7.48828125 0.62890625 C-4.89574724 -0.0263496 -2.66275049 -0.11994372 0 0 Z " fill="#2E7DDA" transform="translate(138,19)"/>
<path d="M0 0 C6.43271409 0.30631972 10.29109442 1.48328761 15.7578125 4.8125 C18.03418307 6.01810393 19.84978371 6.50614633 22.375 6.9375 C32.95694481 8.96187205 43.24794838 16.36221361 49.4765625 25.0625 C50.5625 26.9375 50.5625 26.9375 52 30 C52.495 30.99 52.495 30.99 53 32 C54.0717303 40.84177497 53.32694145 47.68266447 48.37890625 55.1796875 C41.74085844 63.04942563 31.64954049 70.43981895 22 74 C19.69140625 73.64453125 19.69140625 73.64453125 18 73 C18.33 71.35 18.66 69.7 19 68 C19.94875 68.04125 20.8975 68.0825 21.875 68.125 C25.10244856 68.34973818 25.10244856 68.34973818 27 66 C27.99 66 28.98 66 30 66 C30 65.34 30 64.68 30 64 C30.66 64 31.32 64 32 64 C32 63.01 32 62.02 32 61 C34.49064888 60.31292445 36.37886292 60 39 60 C39.1546875 58.576875 39.1546875 58.576875 39.3125 57.125 C40 54 40 54 43 52 C44.32 52 45.64 52 47 52 C47 49.69 47 47.38 47 45 C46.236875 44.855625 45.47375 44.71125 44.6875 44.5625 C42 44 42 44 39 43 C38.34 43.99 37.68 44.98 37 46 C37 45.34 37 44.68 37 44 C35.68 43.67 34.36 43.34 33 43 C33 42.01 33 41.02 33 40 C33.99 40 34.98 40 36 40 C36 39.34 36 38.68 36 38 C38.64 37.67 41.28 37.34 44 37 C43.08538833 29.45445374 39.05890429 24.45468733 33.40625 19.76171875 C24.15722209 12.99010903 13.77236011 7.85795405 3.00390625 4.02734375 C1 3 1 3 0 0 Z " fill="#0D5DA5" transform="translate(77,84)"/>
<path d="M0 0 C2.58789062 1.12304688 2.58789062 1.12304688 5.17578125 2.24609375 C6.75711021 2.89961942 8.37675406 3.45891802 10 4 C9.67 3.34 9.34 2.68 9 2 C10.65 2 12.3 2 14 2 C14 2.66 14 3.32 14 4 C14.67289063 4.09667969 15.34578125 4.19335938 16.0390625 4.29296875 C19.7167395 5.17114756 22.96753511 6.71950187 26.375 8.3125 C34.07874092 11.81640737 41.75945968 14.09378306 50 16 C50 16.66 50 17.32 50 18 C13.52728307 18.37986326 13.52728307 18.37986326 0 17.125 C-1.29381592 17.00729248 -1.29381592 17.00729248 -2.61376953 16.88720703 C-6.72508921 16.44890182 -10.22608024 15.81087279 -14 14 C-14 12.68 -14 11.36 -14 10 C-12.68 9.67 -11.36 9.34 -10 9 C-10 9.66 -10 10.32 -10 11 C-6.04 11 -2.08 11 2 11 C1.87625 9.700625 1.7525 8.40125 1.625 7.0625 C1.55539063 6.33160156 1.48578125 5.60070312 1.4140625 4.84765625 C1.27742188 4.23792969 1.14078125 3.62820312 1 3 C0.34 2.67 -0.32 2.34 -1 2 C-0.67 1.34 -0.34 0.68 0 0 Z " fill="#0A0E33" transform="translate(62,102)"/>
<path d="M0 0 C10.6011948 0.30289128 21.00173999 1.43382149 31.5 2.9375 C32.69206055 3.10733398 33.88412109 3.27716797 35.11230469 3.45214844 C41.48223404 4.39021658 47.73639805 5.50771022 54 7 C53.01 7.33 52.02 7.66 51 8 C50.67 8.66 50.34 9.32 50 10 C47.33333333 10 44.66666667 10 42 10 C39.97543152 11.29572383 37.97321053 12.6273318 36 14 C36.66 15.32 37.32 16.64 38 18 C38.66 18 39.32 18 40 18 C40.66 20.31 41.32 22.62 42 25 C43.65 25.33 45.3 25.66 47 26 C46.4740625 26.99 46.4740625 26.99 45.9375 28 C44.33651457 33.12315338 45.67202465 37.87780938 47 43 C47 43.99 47 44.98 47 46 C46.34 46 45.68 46 45 46 C44.7525 46.7425 44.505 47.485 44.25 48.25 C42.89534961 51.23023087 41.4898459 52.89919252 39 55 C38.34 55 37.68 55 37 55 C37 55.66 37 56.32 37 57 C35.35 57.66 33.7 58.32 32 59 C32.72316406 57.87851563 32.72316406 57.87851563 33.4609375 56.734375 C34.40839844 55.25710937 34.40839844 55.25710937 35.375 53.75 C36.00148437 52.77546875 36.62796875 51.8009375 37.2734375 50.796875 C38.12808594 49.41242188 38.12808594 49.41242188 39 48 C39.39832031 47.36320312 39.79664063 46.72640625 40.20703125 46.0703125 C41.35967996 43.06093409 41.30214179 40.33604625 41.3125 37.125 C41.32925781 35.93132812 41.34601563 34.73765625 41.36328125 33.5078125 C40.53668552 25.52627527 35.17543047 19.71372421 29.375 14.5546875 C23.34742167 9.94706753 16.03364278 6.53406952 8.625 4.9375 C4.75363608 3.93628519 2.99280954 2.55571536 0 0 Z " fill="#50C2F3" transform="translate(88,86)"/>
<path d="M0 0 C0 0.33 0 0.66 0 1 C-0.65226562 1.18175781 -1.30453125 1.36351562 -1.9765625 1.55078125 C-9.2603298 3.61799811 -9.2603298 3.61799811 -16 7 C-16.27585937 7.67675781 -16.55171875 8.35351562 -16.8359375 9.05078125 C-18 11 -18 11 -20.3828125 11.609375 C-21.28773437 11.65578125 -22.19265625 11.7021875 -23.125 11.75 C-24.03507812 11.80671875 -24.94515625 11.8634375 -25.8828125 11.921875 C-26.93082031 11.96054688 -26.93082031 11.96054688 -28 12 C-27.96261719 12.78890625 -27.92523438 13.5778125 -27.88671875 14.390625 C-28 17 -28 17 -29.8125 18.75 C-32 20 -32 20 -35 21 C-37.27332109 30.67402108 -37.27332109 30.67402108 -35 40 C-31.86323874 42.54331994 -28.96642325 43.43336811 -25 44 C-25.33 44.66 -25.66 45.32 -26 46 C-25.67 46.99 -25.34 47.98 -25 49 C-25.33 49.33 -25.66 49.66 -26 50 C-24.35 50.33 -22.7 50.66 -21 51 C-21 51.33 -21 51.66 -21 52 C-30.65843345 52.45670351 -30.65843345 52.45670351 -34.9375 51 C-39.98202505 46.10833935 -42.09651028 39.33780332 -42.3125 32.4375 C-42.20632145 24.43871583 -39.53588696 16.40500187 -33.9375 10.5546875 C-25.27904347 3.6069744 -11.06400609 -2.55708902 0 0 Z " fill="#83CDEF" transform="translate(60,140)"/>
<path d="M0 0 C-2.90762836 4.6680292 -6.64261218 5.72993859 -11.6015625 7.65625 C-14.17418345 8.74625468 -14.17418345 8.74625468 -14.7109375 11.09375 C-14.85402344 12.03734375 -14.85402344 12.03734375 -15 13 C-15.99 13.495 -15.99 13.495 -17 14 C-17 15.32 -17 16.64 -17 18 C-17.99 18.33 -18.98 18.66 -20 19 C-20.99 17.35 -21.98 15.7 -23 14 C-23.53625 14.9075 -24.0725 15.815 -24.625 16.75 C-26.34900974 19.39142922 -27.2929767 20.18164556 -30.125 21.9375 C-33.78516666 24.56327174 -34.16758238 26.67142836 -35 31 C-35.99 31 -36.98 31 -38 31 C-38 30.34 -38 29.68 -38 29 C-38.66 29 -39.32 29 -40 29 C-40.495 31.475 -40.495 31.475 -41 34 C-41.33 34 -41.66 34 -42 34 C-42.25 28.375 -42.25 28.375 -40 25 C-39.34 25 -38.68 25 -38 25 C-38.268125 24.113125 -38.53625 23.22625 -38.8125 22.3125 C-39 19 -39 19 -36.875 16.375 C-35.92625 15.59125 -34.9775 14.8075 -34 14 C-33.25105469 13.36320312 -32.50210938 12.72640625 -31.73046875 12.0703125 C-24.790672 6.80837791 -8.72657661 -2.90885887 0 0 Z " fill="#1773D9" transform="translate(58,43)"/>
<path d="M0 0 C0.33 0.99 0.66 1.98 1 3 C4.465 2.505 4.465 2.505 8 2 C8.97928136 9.89642749 7.68079096 15.37370741 3.37890625 22.07421875 C-3.10493497 30.04859818 -13.38256191 37.45166308 -23 41 C-25.30859375 40.64453125 -25.30859375 40.64453125 -27 40 C-26.67 38.35 -26.34 36.7 -26 35 C-25.05125 35.04125 -24.1025 35.0825 -23.125 35.125 C-19.89755144 35.34973818 -19.89755144 35.34973818 -18 33 C-17.01 33 -16.02 33 -15 33 C-15 32.34 -15 31.68 -15 31 C-14.34 31 -13.68 31 -13 31 C-13 30.01 -13 29.02 -13 28 C-10.50935112 27.31292445 -8.62113708 27 -6 27 C-5.896875 26.05125 -5.79375 25.1025 -5.6875 24.125 C-5 21 -5 21 -2 19 C-0.68 19 0.64 19 2 19 C2 16.69 2 14.38 2 12 C0.8553125 11.7834375 0.8553125 11.7834375 -0.3125 11.5625 C-3 11 -3 11 -6 10 C-6.99 11.485 -6.99 11.485 -8 13 C-8 12.34 -8 11.68 -8 11 C-9.32 10.67 -10.64 10.34 -12 10 C-12 9.01 -12 8.02 -12 7 C-11.01 7 -10.02 7 -9 7 C-9 6.34 -9 5.68 -9 5 C-6.36 4.67 -3.72 4.34 -1 4 C-0.67 2.68 -0.34 1.36 0 0 Z " fill="#022565" transform="translate(122,117)"/>
<path d="M0 0 C0.33 0 0.66 0 1 0 C1.6558943 10.60362453 0.3172671 18.36384708 -6.625 26.625 C-8.4140625 28.6015625 -8.4140625 28.6015625 -10 30 C-10.66 30 -11.32 30 -12 30 C-12 30.66 -12 31.32 -12 32 C-18.08409811 35.89785009 -22.76179827 37.65532373 -30 38 C-30.66 36.35 -31.32 34.7 -32 33 C-31.236875 32.855625 -30.47375 32.71125 -29.6875 32.5625 C-26.91827092 32.0367406 -26.91827092 32.0367406 -24 31 C-22.68 31 -21.36 31 -20 31 C-20.33 30.01 -20.66 29.02 -21 28 C-20.34 27.01 -19.68 26.02 -19 25 C-19.66 24.67 -20.32 24.34 -21 24 C-20.34 23.34 -19.68 22.68 -19 22 C-17.02 22.99 -15.04 23.98 -13 25 C-12.896875 24.38125 -12.79375 23.7625 -12.6875 23.125 C-12 21 -12 21 -9 19 C-9.350625 18.05125 -9.70125 17.1025 -10.0625 16.125 C-11 13 -11 13 -10 11 C-10.66 10.67 -11.32 10.34 -12 10 C-7.69230769 6.92307692 -7.69230769 6.92307692 -4.1875 7.3125 C-3.465625 7.539375 -2.74375 7.76625 -2 8 C-1.855625 7.4225 -1.71125 6.845 -1.5625 6.25 C-1.04166667 4.16666667 -0.52083333 2.08333333 0 0 Z " fill="#2681CA" transform="translate(172,121)"/>
<path d="M0 0 C-3.72192383 2.07199883 -7.69793025 3.25726485 -11.75 4.5 C-12.42804688 4.71269531 -13.10609375 4.92539063 -13.8046875 5.14453125 C-17.19287854 6.19448399 -20.58075217 7.16420649 -24.02734375 8.00390625 C-28.01537736 8.97724028 -31.90523857 10.18326378 -35.8125 11.4375 C-37.22105538 11.8785595 -38.62991082 12.31866185 -40.0390625 12.7578125 C-42.37340331 13.48639298 -44.69976842 14.22963977 -47.0234375 14.9921875 C-54.07377131 17.1631114 -60.65364024 17.31534454 -68 17 C-67.43700195 16.71914551 -66.87400391 16.43829102 -66.29394531 16.14892578 C-64.77557364 15.38844716 -63.25925554 14.62385323 -61.74511719 13.85498047 C-59.08813921 12.51165395 -56.41954664 11.19315788 -53.75 9.875 C-52.83347656 9.40707031 -51.91695312 8.93914062 -50.97265625 8.45703125 C-44.30525687 5.19466607 -39.30392854 3.56535715 -32 6 C-32 5.34 -32 4.68 -32 4 C-27.80455421 3.3473751 -23.6751387 2.90866707 -19.4375 2.625 C-15.90208057 2.33600114 -14.02622787 2.01337107 -10.8125 0.375 C-6.82060343 -1.57659388 -4.3132655 -0.81803311 0 0 Z " fill="#0950A7" transform="translate(98,174)"/>
<path d="M0 0 C-0.66 0 -1.32 0 -2 0 C-2.0928125 0.86625 -2.0928125 0.86625 -2.1875 1.75 C-3.9059871 6.50888735 -8.88904802 8.59406466 -13.109375 10.93359375 C-17.59205664 13.46204848 -21.90683524 16.27122349 -26.1875 19.125 C-28.7497024 20.83313494 -31.34629523 22.43899719 -34 24 C-34 23.01 -34 22.02 -34 21 C-32.04690112 19.59886384 -30.04291182 18.26660533 -28 17 C-27.34 16.34 -26.68 15.68 -26 15 C-27.32 13.68 -28.64 12.36 -30 11 C-28.68 10.67 -27.36 10.34 -26 10 C-26 9.01 -26 8.02 -26 7 C-23.46195542 5.84552129 -20.92006371 4.70131573 -18.375 3.5625 C-17.66214844 3.23701172 -16.94929688 2.91152344 -16.21484375 2.57617188 C-10.89926678 0.21098396 -5.79262721 -2.00514019 0 0 Z " fill="#031D67" transform="translate(138,25)"/>
<path d="M0 0 C-0.33 0.99 -0.66 1.98 -1 3 C-3.51525491 4.19270791 -5.96359611 5.21280482 -8.5625 6.1875 C-17.32229203 9.61622305 -25.65308495 13.67488251 -34 18 C-34.33 17.01 -34.66 16.02 -35 15 C-33.68 14.01 -32.36 13.02 -31 12 C-32.48011371 12.30798326 -33.95907325 12.621518 -35.4375 12.9375 C-36.26121094 13.11152344 -37.08492187 13.28554688 -37.93359375 13.46484375 C-39.97661204 13.80752994 -39.97661204 13.80752994 -41 15 C-42.85287502 15.07226502 -44.70833878 15.0838122 -46.5625 15.0625 C-47.57441406 15.05347656 -48.58632812 15.04445313 -49.62890625 15.03515625 C-50.41136719 15.02355469 -51.19382812 15.01195312 -52 15 C-49.4172653 12.4172653 -47.31510651 12.09224904 -43.79296875 11.13671875 C-42.53145996 10.78915527 -41.26995117 10.4415918 -39.97021484 10.08349609 C-39.31309509 9.90477966 -38.65597534 9.72606323 -37.97894287 9.54193115 C-34.84975577 8.68500699 -31.73217543 7.78807926 -28.61328125 6.89453125 C-24.92006223 5.84130185 -21.22683564 4.78810669 -17.53320312 3.73632812 C-16.34275391 3.39666016 -15.15230469 3.05699219 -13.92578125 2.70703125 C-12.85755127 2.4025708 -11.78932129 2.09811035 -10.6887207 1.78442383 C-6.88435117 0.67451379 -3.98072145 -0.10758707 0 0 Z " fill="#2C78D2" transform="translate(138,19)"/>
<path d="M0 0 C10.75275768 1.76274716 19.42937323 6.11968533 26.40625 14.640625 C30.56401152 20.79574254 31.39764554 26.70983178 31 34 C30.67 34 30.34 34 30 34 C29.505 29.05 29.505 29.05 29 24 C28.05125 24.185625 27.1025 24.37125 26.125 24.5625 C23 25 23 25 21 24 C21.33 22.02 21.66 20.04 22 18 C21.01 17.34 20.02 16.68 19 16 C19 15.34 19 14.68 19 14 C18.34 13.67 17.68 13.34 17 13 C17.33 12.34 17.66 11.68 18 11 C17.34 11 16.68 11 16 11 C16 10.34 16 9.68 16 9 C12.71303767 8.20046862 11.28976808 7.90341064 8 9 C6.00326516 9.35236497 4.00349261 9.68834559 2 10 C1.34 6.7 0.68 3.4 0 0 Z " fill="#62B6DB" transform="translate(143,94)"/>
<path d="M0 0 C1.96397726 1.05213068 3.21086929 2.34216508 4.75 3.9375 C3.8419838 5.06949353 2.92316174 6.19282363 2 7.3125 C1.48953125 7.93898437 0.9790625 8.56546875 0.453125 9.2109375 C-2.17473477 11.87496048 -4.26589026 12.89276774 -8 13.0625 C-8.7425 13.02125 -9.485 12.98 -10.25 12.9375 C-10.25 13.5975 -10.25 14.2575 -10.25 14.9375 C-11.013125 14.6075 -11.77625 14.2775 -12.5625 13.9375 C-15.24069135 12.76313314 -15.24069135 12.76313314 -18.25 12.9375 C-18.58 13.5975 -18.91 14.2575 -19.25 14.9375 C-21.25 13.9375 -23.25 12.9375 -25.25 11.9375 C-24.17621094 11.40640625 -23.10242188 10.8753125 -21.99609375 10.328125 C-20.55984158 9.61469255 -19.12364672 8.90114471 -17.6875 8.1875 C-16.98302734 7.83945313 -16.27855469 7.49140625 -15.55273438 7.1328125 C-12.08865281 5.40875347 -8.69498813 3.63725633 -5.36328125 1.66796875 C-2.25 -0.0625 -2.25 -0.0625 0 0 Z " fill="#0A67C4" transform="translate(109.25,154.0625)"/>
<path d="M0 0 C0.66 0.33 1.32 0.66 2 1 C1.72053025 4.26048047 1.08564763 5.88948692 -0.9375 8.5 C-9.04230972 15.1161712 -18.7637698 17.6472372 -28.6887207 20.27734375 C-30.96138102 20.88134684 -33.22769438 21.50593867 -35.49414062 22.1328125 C-36.94237914 22.52465623 -38.39093606 22.91532547 -39.83984375 23.3046875 C-40.85231422 23.58419754 -40.85231422 23.58419754 -41.88523865 23.86935425 C-45.14668117 24.72146568 -46.72757796 25.09080735 -50 24 C-49.34 24 -48.68 24 -48 24 C-48 23.34 -48 22.68 -48 22 C-47.00097656 21.73445313 -46.00195312 21.46890625 -44.97265625 21.1953125 C-43.66915639 20.83896002 -42.3657771 20.48216632 -41.0625 20.125 C-40.40314453 19.95097656 -39.74378906 19.77695313 -39.06445312 19.59765625 C-37.358497 19.12523763 -35.67660739 18.56784972 -34 18 C-33.67 17.34 -33.34 16.68 -33 16 C-30.12817413 15.52381188 -27.32879853 15.15832403 -24.4375 14.875 C-23.63119141 14.78863281 -22.82488281 14.70226563 -21.99414062 14.61328125 C-19.99695936 14.40056372 -17.99857263 14.19922145 -16 14 C-16.495 12.515 -16.495 12.515 -17 11 C-16.31292969 10.73445313 -15.62585938 10.46890625 -14.91796875 10.1953125 C-14.01691406 9.84210937 -13.11585938 9.48890625 -12.1875 9.125 C-11.29417969 8.77695312 -10.40085938 8.42890625 -9.48046875 8.0703125 C-5.44367954 6.32845385 -3.86110344 4.84628043 -2 1 C-1.34 0.67 -0.68 0.34 0 0 Z " fill="#4C5E92" transform="translate(157,47)"/>
<path d="M0 0 C2.9916738 2.24375535 4.57201141 3.78187864 5.8125 7.3125 C5.874375 7.869375 5.93625 8.42625 6 9 C5.34 9 4.68 9 4 9 C3.67 8.34 3.34 7.68 3 7 C1.6696875 7.556875 1.6696875 7.556875 0.3125 8.125 C-3.52330735 9.13823213 -4.53310318 8.68900101 -8 7 C-10.44539786 5.92727438 -10.44539786 5.92727438 -13 6 C-15.68743506 8.27073609 -15.68743506 8.27073609 -18 11 C-18.99 11.66 -19.98 12.32 -21 13 C-21 12.01 -21 11.02 -21 10 C-22.98 10 -24.96 10 -27 10 C-24 8 -24 8 -21.9375 7.625 C-21.298125 7.41875 -20.65875 7.2125 -20 7 C-19.71382812 6.36320312 -19.42765625 5.72640625 -19.1328125 5.0703125 C-17.70630653 2.46324987 -16.73089759 2.13679289 -13.9375 1.25 C-9.30800983 -0.09188121 -4.78075823 -1.00062382 0 0 Z " fill="#08206B" transform="translate(157,15)"/>
<path d="M0 0 C0.495 1.485 0.495 1.485 1 3 C-3.79291711 6.0887688 -8.16983339 7.7658983 -13.69140625 9.13671875 C-16.2543219 9.805437 -18.75434276 10.53403557 -21.27734375 11.33203125 C-22.02580566 11.56543213 -22.77426758 11.79883301 -23.54541016 12.03930664 C-25.02856591 12.50425026 -26.50889042 12.97834909 -27.98583984 13.46264648 C-32.36834872 14.81476226 -35.432947 15.17581898 -40 14 C-36.52431577 9.64624817 -32.95354281 8.8716117 -27.75 7.75 C-27.00492188 7.57726562 -26.25984375 7.40453125 -25.4921875 7.2265625 C-23.66439713 6.80476472 -21.83255208 6.40060441 -20 6 C-19.67 4.68 -19.34 3.36 -19 2 C-18.14728516 2.16048828 -18.14728516 2.16048828 -17.27734375 2.32421875 C-10.2973826 3.40791889 -6.42811443 0 0 0 Z " fill="#2C64AE" transform="translate(139,158)"/>
<path d="M0 0 C2.58789062 1.12304688 2.58789062 1.12304688 5.17578125 2.24609375 C6.75711021 2.89961942 8.37675406 3.45891802 10 4 C9.67 3.34 9.34 2.68 9 2 C10.65 2 12.3 2 14 2 C14 2.66 14 3.32 14 4 C15.05767578 4.16822266 15.05767578 4.16822266 16.13671875 4.33984375 C19.27389512 5.06314908 21.90127906 6.19457691 24.8125 7.5625 C25.78832031 8.01753906 26.76414062 8.47257812 27.76953125 8.94140625 C28.50558594 9.29074219 29.24164063 9.64007813 30 10 C29.01 10.66 28.02 11.32 27 12 C27 11.34 27 10.68 27 10 C25.7934375 10.2784375 25.7934375 10.2784375 24.5625 10.5625 C20.77735571 11.02734228 17.68764635 10.67466275 13.953125 10.05859375 C13.30859375 10.03925781 12.6640625 10.01992187 12 10 C11.34 10.66 10.68 11.32 10 12 C4.51428571 13.25714286 4.51428571 13.25714286 2 12 C1.60689586 9.67711188 1.49250305 7.38154824 1.34375 5.03125 C1.2303125 4.3609375 1.116875 3.690625 1 3 C0.34 2.67 -0.32 2.34 -1 2 C-0.67 1.34 -0.34 0.68 0 0 Z " fill="#031A5B" transform="translate(62,102)"/>
<path d="M0 0 C6.43271409 0.30631972 10.29109442 1.48328761 15.7578125 4.8125 C18.03418307 6.01810393 19.84978371 6.50614633 22.375 6.9375 C28.19362009 7.97764271 32.97364253 11.0123707 38 14 C34.28125 15.1171875 34.28125 15.1171875 31.75 14.0625 C31.1725 13.711875 30.595 13.36125 30 13 C30.495 13.45375 30.99 13.9075 31.5 14.375 C33 16 33 16 33 18 C27.92744428 16.53494509 23.75961342 14.28228687 19.25 11.625 C13.87467293 8.50791712 8.6475448 5.81003985 2.72265625 3.8515625 C2.15417969 3.57054688 1.58570312 3.28953125 1 3 C0.67 2.01 0.34 1.02 0 0 Z " fill="#1E6299" transform="translate(77,84)"/>
<path d="M0 0 C0 1.66666667 0 3.33333333 0 5 C-1.65 5.66 -3.3 6.32 -5 7 C-5.33 6.34 -5.66 5.68 -6 5 C-6.99 5.33 -7.98 5.66 -9 6 C-9 6.99 -9 7.98 -9 9 C-12.465 10.485 -12.465 10.485 -16 12 C-16.33 11.01 -16.66 10.02 -17 9 C-19.31 10.32 -21.62 11.64 -24 13 C-25.32 12.01 -26.64 11.02 -28 10 C-26.68 9.34 -25.36 8.68 -24 8 C-24.33 7.34 -24.66 6.68 -25 6 C-23.91460937 5.66226563 -22.82921875 5.32453125 -21.7109375 4.9765625 C-20.26561539 4.52607249 -18.82030343 4.07554993 -17.375 3.625 C-16.66214844 3.40328125 -15.94929688 3.1815625 -15.21484375 2.953125 C-14.16103516 2.62441406 -14.16103516 2.62441406 -13.0859375 2.2890625 C-12.39209961 2.07411133 -11.69826172 1.85916016 -10.98339844 1.63769531 C-9.19472269 1.06260656 -7.42749381 0.42181857 -5.6640625 -0.2265625 C-3 -1 -3 -1 0 0 Z " fill="#4587D3" transform="translate(85,35)"/>
<path d="M0 0 C0 0.99 0 1.98 0 3 C-0.99 3 -1.98 3 -3 3 C-3.474375 3.515625 -3.94875 4.03125 -4.4375 4.5625 C-4.953125 5.036875 -5.46875 5.51125 -6 6 C-8.1875 5.6875 -8.1875 5.6875 -10 5 C-10.2475 5.804375 -10.495 6.60875 -10.75 7.4375 C-12 10 -12 10 -14.125 10.8125 C-14.74375 10.874375 -15.3625 10.93625 -16 11 C-16 10.34 -16 9.68 -16 9 C-17.6396875 9.7734375 -17.6396875 9.7734375 -19.3125 10.5625 C-23 12 -23 12 -26 11 C-27.66362417 10.65179959 -29.32995171 10.31595508 -31 10 C-31 9.34 -31 8.68 -31 8 C-30.01 8 -29.02 8 -28 8 C-28 7.34 -28 6.68 -28 6 C-27.4652002 5.85377197 -26.93040039 5.70754395 -26.37939453 5.55688477 C-23.96066661 4.89424479 -21.54282904 4.22841194 -19.125 3.5625 C-18.28324219 3.33240234 -17.44148438 3.10230469 -16.57421875 2.86523438 C-15.36572266 2.53168945 -15.36572266 2.53168945 -14.1328125 2.19140625 C-13.38918457 1.98717041 -12.64555664 1.78293457 -11.87939453 1.57250977 C-7.46197222 0.22685436 -4.77805946 -0.07706548 0 0 Z " fill="#1E69BA" transform="translate(109,125)"/>
<path d="M0 0 C2.475 0.495 2.475 0.495 5 1 C5 1.99 5 2.98 5 4 C5.7425 4.12375 6.485 4.2475 7.25 4.375 C9.81542782 4.95805178 11.67016536 5.83508268 14 7 C14.99 7 15.98 7 17 7 C20.01529276 7.56536739 21.3408556 8.22723707 24 10 C24 10.99 24 11.98 24 13 C25.32 13 26.64 13 28 13 C27.67 13.99 27.34 14.98 27 16 C17.23741879 16.13218195 10.26100743 13.04417632 3.19921875 6.2734375 C0 2.61461268 0 2.61461268 0 0 Z " fill="#3D547D" transform="translate(15,98)"/>
<path d="M0 0 C-2.24428114 2.58092331 -3.73878565 3.20940258 -7 4 C-8.34990354 4.97751635 -9.68036291 5.98199424 -11 7 C-14.22541643 8.90891993 -17.46612183 10.7229807 -20.79296875 12.44921875 C-21.76878906 12.96097656 -22.74460937 13.47273438 -23.75 14 C-25.13445312 14.7115625 -25.13445312 14.7115625 -26.546875 15.4375 C-30.17436792 17.74800505 -31.65058967 19.95176902 -33 24 C-34.65 24 -36.3 24 -38 24 C-37.09099894 18.18751432 -32.4406428 15.3985102 -28 12 C-7.37014315 -2.45671438 -7.37014315 -2.45671438 0 0 Z " fill="#042168" transform="translate(104,40)"/>
<path d="M0 0 C-1.76343296 3.40930373 -3.677222 4.42468575 -7.1875 5.5625 C-8.78986214 6.04766693 -10.39407592 6.52675667 -12 7 C-14.76010181 7.88304765 -17.32695028 8.85440726 -20 10 C-20.33 10.99 -20.66 11.98 -21 13 C-21.66 12.9175 -22.32 12.835 -23 12.75 C-26.62555299 13.05212942 -28.97072596 14.31095825 -32.1328125 16.02734375 C-34 17 -34 17 -37 18 C-37 18.66 -37 19.32 -37 20 C-37.66 19.67 -38.32 19.34 -39 19 C-31.41961362 11.20303116 -11.88632473 -3.96210824 0 0 Z " fill="#457FC9" transform="translate(58,43)"/>
<path d="M0 0 C0 0.33 0 0.66 0 1 C-0.65226562 1.18175781 -1.30453125 1.36351562 -1.9765625 1.55078125 C-9.2603298 3.61799811 -9.2603298 3.61799811 -16 7 C-16.27714844 7.67933594 -16.55429687 8.35867187 -16.83984375 9.05859375 C-17.22269531 9.69925781 -17.60554688 10.33992187 -18 11 C-20.34765625 11.5390625 -20.34765625 11.5390625 -23.0625 11.625 C-25.7061707 11.68478906 -25.7061707 11.68478906 -28 12 C-28.33 12.66 -28.66 13.32 -29 14 C-29.93423645 10.98968256 -30.04449911 10.13349732 -29 7 C-26.6415503 5.83118445 -24.39146121 4.85579611 -21.9375 3.9375 C-21.25373291 3.67509521 -20.56996582 3.41269043 -19.86547852 3.14233398 C-6.944717 -1.73617925 -6.944717 -1.73617925 0 0 Z " fill="#7EBDDD" transform="translate(60,140)"/>
<path d="M0 0 C10.6011948 0.30289128 21.00173999 1.43382149 31.5 2.9375 C32.69206055 3.10733398 33.88412109 3.27716797 35.11230469 3.45214844 C41.48223404 4.39021658 47.73639805 5.50771022 54 7 C53.01 7.33 52.02 7.66 51 8 C50.67 8.66 50.34 9.32 50 10 C44.375 10.25 44.375 10.25 41 8 C38.75354124 7.58256635 38.75354124 7.58256635 36.375 7.4375 C32.09841828 7.09841828 32.09841828 7.09841828 31 6 C27.9964046 5.71372691 24.99259893 5.55134245 21.98046875 5.37890625 C19 5 19 5 16.9921875 3.9609375 C13.45888476 2.25663853 9.61476883 3.02817612 5.77734375 3.22265625 C3 3 3 3 1.12890625 1.49609375 C0.75636719 1.00238281 0.38382812 0.50867188 0 0 Z " fill="#8CC5E0" transform="translate(88,86)"/>
<path d="M0 0 C2.31 0.33 4.62 0.66 7 1 C7 1.33 7 1.66 7 2 C6.36908447 2.16604736 5.73816895 2.33209473 5.08813477 2.50317383 C2.24259749 3.25990143 -0.59732411 4.03590375 -3.4375 4.8125 C-4.43072266 5.07353516 -5.42394531 5.33457031 -6.44726562 5.60351562 C-7.39150391 5.86455078 -8.33574219 6.12558594 -9.30859375 6.39453125 C-10.62041626 6.74801636 -10.62041626 6.74801636 -11.95874023 7.10864258 C-12.63235596 7.40279053 -13.30597168 7.69693848 -14 8 C-15.18826921 11.56480762 -14.76813843 12.19969907 -13.25 15.5 C-12.90453125 16.2734375 -12.5590625 17.046875 -12.203125 17.84375 C-11.10260142 20.05048647 -11.10260142 20.05048647 -9.33984375 21.64453125 C-8.67662109 22.31548828 -8.67662109 22.31548828 -8 23 C-8.3125 25.1875 -8.3125 25.1875 -9 27 C-13.34367366 23.0085161 -16.75795246 19.50968926 -17.1796875 13.39453125 C-17.18666325 10.92162646 -17.13174977 8.46908836 -17 6 C-16.01 5.67 -15.02 5.34 -14 5 C-13.5875 4.484375 -13.175 3.96875 -12.75 3.4375 C-9.98834459 1.16899734 -7.44689764 1.75379303 -4 2 C-3.01 2.33 -2.02 2.66 -1 3 C-0.67 2.01 -0.34 1.02 0 0 Z " fill="#2B3156" transform="translate(78,77)"/>
<path d="M0 0 C0.92619141 0.29003906 0.92619141 0.29003906 1.87109375 0.5859375 C7.54348868 2.32996151 13.19193035 3.78217894 19 5 C19 5.66 19 6.32 19 7 C-20.63313956 7.41277905 -20.63313956 7.41277905 -40 5 C-40 4.67 -40 4.34 -40 4 C-24.65851804 4.53506795 -9.32605182 5.12262554 6 6 C6 5.34 6 4.68 6 4 C3.525 3.505 3.525 3.505 1 3 C0.505 1.515 0.505 1.515 0 0 Z " fill="#9091A0" transform="translate(93,113)"/>
<path d="M0 0 C0.99 0.33 1.98 0.66 3 1 C1.87687034 4.36938898 0.46825907 5.53174093 -2 8 C-2.33 8.99 -2.66 9.98 -3 11 C-3.66 11 -4.32 11 -5 11 C-5.0501123 11.56509277 -5.10022461 12.13018555 -5.15185547 12.71240234 C-5.38366272 15.26753853 -5.6291579 17.82117762 -5.875 20.375 C-5.95363281 21.26445312 -6.03226563 22.15390625 -6.11328125 23.0703125 C-6.23896484 24.34648437 -6.23896484 24.34648437 -6.3671875 25.6484375 C-6.44050293 26.43395996 -6.51381836 27.21948242 -6.58935547 28.02880859 C-7 30 -7 30 -9 32 C-11.46127521 23.21544866 -10.06680176 15.08430896 -6 7 C-4.15332013 4.40563998 -2.23643082 2.28725879 0 0 Z " fill="#AED6E8" transform="translate(28,149)"/>
<path d="M0 0 C0.33 0.66 0.66 1.32 1 2 C2.22976562 1.98259766 2.22976562 1.98259766 3.484375 1.96484375 C5.10085937 1.95130859 5.10085937 1.95130859 6.75 1.9375 C8.35101563 1.92009766 8.35101563 1.92009766 9.984375 1.90234375 C13 2 13 2 15.23046875 2.55859375 C17.89707602 3.22377393 19.56513723 2.12378282 22 1 C25.3111013 -0.10370043 27.24748949 0.07326359 30.6875 0.4375 C31.68136719 0.53933594 32.67523438 0.64117187 33.69921875 0.74609375 C34.45847656 0.82988281 35.21773437 0.91367188 36 1 C35.67 2.32 35.34 3.64 35 5 C22.62367928 5.10396237 10.33173224 5.19684056 -2 4 C-2.33 3.01 -2.66 2.02 -3 1 C-2.01 0.67 -1.02 0.34 0 0 Z " fill="#06164C" transform="translate(51,111)"/>
<path d="M0 0 C2.21435076 3.32152614 2.09285903 4.19277961 2 8 C2.31478446 9.33783393 2.64587656 10.67203709 3 12 C3 12.99 3 13.98 3 15 C2.34 15 1.68 15 1 15 C0.7525 15.7425 0.505 16.485 0.25 17.25 C-1.10465039 20.23023087 -2.5101541 21.89919252 -5 24 C-5.66 24 -6.32 24 -7 24 C-7 24.66 -7 25.32 -7 26 C-8.65 26.66 -10.3 27.32 -12 28 C-11.51789063 27.25234375 -11.03578125 26.5046875 -10.5390625 25.734375 C-9.90742187 24.74953125 -9.27578125 23.7646875 -8.625 22.75 C-7.99851562 21.77546875 -7.37203125 20.8009375 -6.7265625 19.796875 C-3.23316943 14.13789437 -2.66585346 10.24152019 -2.34375 3.58203125 C-2.2303125 2.72996094 -2.116875 1.87789063 -2 1 C-1.34 0.67 -0.68 0.34 0 0 Z " fill="#4A9ED6" transform="translate(132,117)"/>
<path d="M0 0 C1.92356688 7.41947225 1.92356688 7.41947225 2.109375 11.26171875 C2.61213843 20.38128875 6.37669405 25.94440599 13 32 C13.66 31.34 14.32 30.68 15 30 C15.99 30.99 16.98 31.98 18 33 C17.01 33.495 17.01 33.495 16 34 C16.99 34.99 17.98 35.98 19 37 C14.32260048 35.71814707 11.43303268 34.02918999 7.875 30.75 C7.04742187 30.00234375 6.21984375 29.2546875 5.3671875 28.484375 C0.76602966 23.65543707 -1.47636547 20.23273732 -1.40039062 13.57617188 C-1.37138672 12.82916016 -1.34238281 12.08214844 -1.3125 11.3125 C-1.30283203 10.55388672 -1.29316406 9.79527344 -1.28320312 9.01367188 C-1.21751963 5.77804589 -1.02851399 3.08554197 0 0 Z " fill="#2972CA" transform="translate(56,71)"/>
<path d="M0 0 C2.4375 0.625 2.4375 0.625 5 2 C5.8125 5.125 5.8125 5.125 6 8 C3.61426621 9.89213369 1.92824652 11.02391783 -1 12 C-1.99 13.485 -1.99 13.485 -3 15 C-6.625 15.6875 -6.625 15.6875 -10 16 C-10.66 14.35 -11.32 12.7 -12 11 C-11.236875 10.855625 -10.47375 10.71125 -9.6875 10.5625 C-6.91827092 10.0367406 -6.91827092 10.0367406 -4 9 C-2.68 9 -1.36 9 0 9 C-0.33 8.01 -0.66 7.02 -1 6 C-0.34 5.01 0.32 4.02 1 3 C0.34 2.67 -0.32 2.34 -1 2 C-0.67 1.34 -0.34 0.68 0 0 Z " fill="#1B78CA" transform="translate(152,143)"/>
<path d="M0 0 C5.44693314 -0.09688221 10.63904667 -0.12862175 16 1 C16 1.33 16 1.66 16 2 C19.3 2.33 22.6 2.66 26 3 C26 3.33 26 3.66 26 4 C23.36 4.33 20.72 4.66 18 5 C18.61875 5.061875 19.2375 5.12375 19.875 5.1875 C22 6 22 6 23.25 8.5625 C23.4975 9.366875 23.745 10.17125 24 11 C20.48881848 9.63348611 17.09050867 8.11532105 13.6875 6.5 C9.1508805 4.41610568 4.88052683 3.01293953 0 2 C0 1.34 0 0.68 0 0 Z " fill="#57C3F3" transform="translate(93,88)"/>
<path d="M0 0 C2.08984375 0.4140625 2.08984375 0.4140625 4 1 C2.91332031 1.89138672 2.91332031 1.89138672 1.8046875 2.80078125 C-6.40652121 9.84052418 -11.04657672 16.85227296 -15 27 C-16.60901821 22.97745449 -15.14680005 20.01380017 -14 16 C-14.26499604 13.66691552 -14.26499604 13.66691552 -15 12 C-14.21625 11.938125 -13.4325 11.87625 -12.625 11.8125 C-9.77635773 11.26680778 -9.77635773 11.26680778 -8.6875 8.5625 C-7.91362381 6.12023958 -7.91362381 6.12023958 -8 4 C-7.236875 3.896875 -6.47375 3.79375 -5.6875 3.6875 C-2.95645104 3.2401537 -2.95645104 3.2401537 -1.4375 1.375 C-0.963125 0.92125 -0.48875 0.4675 0 0 Z " fill="#2873CD" transform="translate(72,52)"/>
<path d="M0 0 C0 0.66 0 1.32 0 2 C-0.66 2 -1.32 2 -2 2 C-1.67 2.99 -1.34 3.98 -1 5 C-1.234375 7.41015625 -1.234375 7.41015625 -1.75 10.0625 C-1.90984375 10.94035156 -2.0696875 11.81820312 -2.234375 12.72265625 C-3 15 -3 15 -6 17 C-6.33 16.01 -6.66 15.02 -7 14 C-7.66 14 -8.32 14 -9 14 C-9.33 15.65 -9.66 17.3 -10 19 C-10.33 19 -10.66 19 -11 19 C-11.25 13.375 -11.25 13.375 -9 10 C-8.34 10 -7.68 10 -7 10 C-7.33 8.35 -7.66 6.7 -8 5 C-7.34 5 -6.68 5 -6 5 C-6 4.34 -6 3.68 -6 3 C-2.53846154 0 -2.53846154 0 0 0 Z " fill="#1068CB" transform="translate(27,58)"/>
<path d="M0 0 C-0.33 0.99 -0.66 1.98 -1 3 C-3.36083984 3.99902344 -3.36083984 3.99902344 -6.4609375 4.859375 C-8.12769531 5.32537109 -8.12769531 5.32537109 -9.828125 5.80078125 C-10.99859375 6.11402344 -12.1690625 6.42726563 -13.375 6.75 C-14.53773437 7.07871094 -15.70046875 7.40742187 -16.8984375 7.74609375 C-25.60058036 10.13313988 -25.60058036 10.13313988 -29 9 C-28.34 9 -27.68 9 -27 9 C-27 8.34 -27 7.68 -27 7 C-26.00097656 6.73445313 -25.00195312 6.46890625 -23.97265625 6.1953125 C-22.66915639 5.83896002 -21.3657771 5.48216632 -20.0625 5.125 C-19.0734668 4.86396484 -19.0734668 4.86396484 -18.06445312 4.59765625 C-16.358497 4.12523763 -14.67660739 3.56784972 -13 3 C-12.67 2.34 -12.34 1.68 -12 1 C-7.96960118 0.06269795 -4.12580711 -0.0982335 0 0 Z " fill="#112C6F" transform="translate(136,62)"/>
<path d="M0 0 C-1 3 -1 3 -3.40625 4.38671875 C-9.93294789 7.13089854 -14.91104528 8.78766164 -22 8 C-22.99 7.34 -23.98 6.68 -25 6 C-21.77429922 4.98857805 -18.54394135 3.99291347 -15.3125 3 C-14.40048828 2.71382812 -13.48847656 2.42765625 -12.54882812 2.1328125 C-11.66259766 1.86210937 -10.77636719 1.59140625 -9.86328125 1.3125 C-9.05157471 1.06113281 -8.23986816 0.80976563 -7.40356445 0.55078125 C-4.86033295 -0.03200496 -2.60022093 -0.09712888 0 0 Z " fill="#568BC4" transform="translate(138,19)"/>
<path d="M0 0 C0.33 0.99 0.66 1.98 1 3 C-5.1097557 7.07317046 -9.14937918 7.97012416 -16.5 6.5 C-16.995 6.335 -17.49 6.17 -18 6 C-18.33 6.66 -18.66 7.32 -19 8 C-19 6 -19 4 -19 2 C-18.43152344 2.10699219 -17.86304687 2.21398437 -17.27734375 2.32421875 C-10.2973826 3.40791889 -6.42811443 0 0 0 Z " fill="#4A79B1" transform="translate(139,158)"/>
<path d="M0 0 C0.33 0.66 0.66 1.32 1 2 C1.99 2.66 2.98 3.32 4 4 C1.39704724 5.31495542 -1.20728033 6.62704986 -3.8125 7.9375 C-4.55048828 8.31068359 -5.28847656 8.68386719 -6.04882812 9.06835938 C-6.76103516 9.42607422 -7.47324219 9.78378906 -8.20703125 10.15234375 C-9.18893433 10.6472229 -9.18893433 10.6472229 -10.19067383 11.15209961 C-12 12 -12 12 -15 13 C-15.66 11.68 -16.32 10.36 -17 9 C-16.39671875 8.82984375 -15.7934375 8.6596875 -15.171875 8.484375 C-10.38473053 7.03278926 -7.35596693 5.85314721 -4 2 C-1.75 0.75 -1.75 0.75 0 0 Z " fill="#2B9DE6" transform="translate(50,176)"/>
<path d="M0 0 C2.69082872 0.17635452 5.32851446 0.61835921 8 1 C4.27807617 3.07199883 0.30206975 4.25726485 -3.75 5.5 C-4.42804688 5.71269531 -5.10609375 5.92539063 -5.8046875 6.14453125 C-12.45120852 8.20419461 -19.10767778 9.96615167 -26 11 C-23.12768339 8.64158956 -20.58487657 7.33519464 -17.05078125 6.2109375 C-16.12072266 5.90929687 -15.19066406 5.60765625 -14.23242188 5.296875 C-13.26884766 4.99265625 -12.30527344 4.6884375 -11.3125 4.375 C-9.39111073 3.76035862 -7.47049175 3.14330227 -5.55078125 2.5234375 C-4.70169189 2.25450684 -3.85260254 1.98557617 -2.9777832 1.70849609 C-1.0256938 1.16809954 -1.0256938 1.16809954 0 0 Z " fill="#506FA3" transform="translate(90,173)"/>
<path d="M0 0 C-0.33 1.65 -0.66 3.3 -1 5 C-1.825 4.938125 -2.65 4.87625 -3.5 4.8125 C-7.04487517 5.00240403 -9.45592006 5.9906281 -12.69921875 7.33203125 C-17.04058844 8.5924289 -21.52352381 8.22217805 -26 8 C-23.34661659 5.34661659 -20.98548554 4.98959775 -17.375 4 C-16.11945313 3.65453125 -14.86390625 3.3090625 -13.5703125 2.953125 C-11.80300781 2.48132813 -11.80300781 2.48132813 -10 2 C-8.69675781 1.65195312 -8.69675781 1.65195312 -7.3671875 1.296875 C-2.34642857 0 -2.34642857 0 0 0 Z " fill="#5685B9" transform="translate(112,26)"/>
<path d="M0 0 C2 1 2 1 4 4 C1.75820623 5.36965208 -0.49172338 6.72052808 -2.75 8.0625 C-3.38421875 8.45244141 -4.0184375 8.84238281 -4.671875 9.24414062 C-9.50498766 12.08862881 -9.50498766 12.08862881 -12.21582031 11.60327148 C-12.80459961 11.40419189 -13.39337891 11.2051123 -14 11 C-13.67 9.35 -13.34 7.7 -13 6 C-12.05125 6.04125 -11.1025 6.0825 -10.125 6.125 C-6.89755144 6.34973818 -6.89755144 6.34973818 -5 4 C-4.01 4 -3.02 4 -2 4 C-2 3.34 -2 2.68 -2 2 C-1.34 2 -0.68 2 0 2 C0 1.34 0 0.68 0 0 Z " fill="#0952A3" transform="translate(109,146)"/>
<path d="M0 0 C0.33 0.99 0.66 1.98 1 3 C-1.852292 7.51612901 -5.6459702 10.06940302 -10 13 C-13.875 11.25 -13.875 11.25 -15 9 C-12.50935112 8.31292445 -10.62113708 8 -8 8 C-7.8453125 6.576875 -7.8453125 6.576875 -7.6875 5.125 C-6.61411923 0.24599649 -4.80229938 0 0 0 Z " fill="#083072" transform="translate(124,136)"/>
<path d="M0 0 C0.598125 0.165 1.19625 0.33 1.8125 0.5 C4.11344336 1.1114124 4.11344336 1.1114124 7 1 C10.01529276 1.56536739 11.3408556 2.22723707 14 4 C14 4.99 14 5.98 14 7 C15.32 7 16.64 7 18 7 C17.67 7.99 17.34 8.98 17 10 C14.69 9.67 12.38 9.34 10 9 C9.67 8.01 9.34 7.02 9 6 C6.89415562 5.19436362 6.89415562 5.19436362 4.4375 4.8125 C3.61121094 4.65394531 2.78492188 4.49539062 1.93359375 4.33203125 C1.29550781 4.22246094 0.65742188 4.11289063 0 4 C0 2.68 0 1.36 0 0 Z " fill="#042B71" transform="translate(25,104)"/>
<path d="M0 0 C3.625 0.1875 3.625 0.1875 6.625 2.1875 C4.06513121 3.02976 1.50260985 3.86148551 -1.0625 4.6875 C-2.1443457 5.04521484 -2.1443457 5.04521484 -3.24804688 5.41015625 C-7.06907657 6.63148994 -10.30942056 7.50825577 -14.375 7.1875 C-14.705 5.8675 -15.035 4.5475 -15.375 3.1875 C-14.20130859 2.98833984 -14.20130859 2.98833984 -13.00390625 2.78515625 C-11.99199219 2.60855469 -10.98007813 2.43195313 -9.9375 2.25 C-8.92816406 2.07597656 -7.91882813 1.90195313 -6.87890625 1.72265625 C-3.55467655 1.01217346 -3.68749923 0.20486107 0 0 Z " fill="#2D3A69" transform="translate(99.375,70.8125)"/>
<path d="M0 0 C0.33 0 0.66 0 1 0 C1.51345509 8.30085731 0.70721995 14.51935975 -3 22 C-3.33 22 -3.66 22 -4 22 C-4 18.37 -4 14.74 -4 11 C-4.66 11 -5.32 11 -6 11 C-5.67 9.68 -5.34 8.36 -5 7 C-4.01 7.33 -3.02 7.66 -2 8 C-1.855625 7.4225 -1.71125 6.845 -1.5625 6.25 C-1.04166667 4.16666667 -0.52083333 2.08333333 0 0 Z " fill="#458DC0" transform="translate(172,121)"/>
<path d="M0 0 C4.455 0.99 4.455 0.99 9 2 C9.33 3.65 9.66 5.3 10 7 C7.36 7.99 4.72 8.98 2 10 C1.34 6.7 0.68 3.4 0 0 Z " fill="#4FC1EA" transform="translate(143,94)"/>
<path d="M0 0 C2 2 2 2 2.265625 5.01171875 C2.21386351 17.18860828 2.21386351 17.18860828 0 23 C-0.33 23 -0.66 23 -1 23 C-2.66240201 14.89579019 -2.29866516 7.90166148 0 0 Z " fill="#4B74A8" transform="translate(13,71)"/>
<path d="M0 0 C0 0.66 0 1.32 0 2 C-3.465 3.485 -3.465 3.485 -7 5 C-7.33 4.01 -7.66 3.02 -8 2 C-10.31 3.32 -12.62 4.64 -15 6 C-16.32 5.01 -17.64 4.02 -19 3 C-12.40947838 -1.33091421 -7.55265937 -1.06954871 0 0 Z " fill="#227ADF" transform="translate(76,42)"/>
<path d="M0 0 C-1.71967351 3.02990095 -3.29238306 5.76327296 -6 8 C-6.66 8 -7.32 8 -8 8 C-8 8.66 -8 9.32 -8 10 C-9.45264038 10.8638129 -10.9123163 11.71580454 -12.375 12.5625 C-13.59316406 13.27599609 -13.59316406 13.27599609 -14.8359375 14.00390625 C-15.55007812 14.33261719 -16.26421875 14.66132813 -17 15 C-17.66 14.67 -18.32 14.34 -19 14 C-16.64296297 10.46444445 -14.74222272 9.87111136 -11 8 C-7.90936613 5.41055 -6.92428555 3.829183 -6 0 C-3 -1 -3 -1 0 0 Z " fill="#4A83B5" transform="translate(168,143)"/>
<path d="M0 0 C-5.1875686 4.38948113 -10.20167327 5.26119034 -16.875 5.125 C-18.02742188 5.10695312 -19.17984375 5.08890625 -20.3671875 5.0703125 C-21.23601563 5.04710937 -22.10484375 5.02390625 -23 5 C-22.39027344 4.70351562 -21.78054687 4.40703125 -21.15234375 4.1015625 C-18.90066073 3.00108578 -18.90066073 3.00108578 -16.5625 1.375 C-11.12996572 -0.72176762 -5.75716405 -0.23062823 0 0 Z " fill="#103D75" transform="translate(53,186)"/>
<path d="M0 0 C0.66 0 1.32 0 2 0 C6 5.41176471 6 5.41176471 6 8 C5.34 8 4.68 8 4 8 C3.67 7.34 3.34 6.68 3 6 C2.113125 6.4125 1.22625 6.825 0.3125 7.25 C-0.780625 7.4975 -1.87375 7.745 -3 8 C-5.875 6.125 -5.875 6.125 -8 4 C-6 2 -6 2 -2.875 1.875 C-1.92625 1.91625 -0.9775 1.9575 0 2 C0 1.34 0 0.68 0 0 Z " fill="#062C82" transform="translate(157,16)"/>
<path d="M0 0 C0.33 0.66 0.66 1.32 1 2 C0.34 2 -0.32 2 -1 2 C-1 2.66 -1 3.32 -1 4 C1.64 4.33 4.28 4.66 7 5 C4.74099507 7.25900493 4.05816925 7.34458029 1 7.6875 C0.29875 7.77386719 -0.4025 7.86023438 -1.125 7.94921875 C-3 8 -3 8 -5 7 C-6.99551782 6.64080679 -8.99548879 6.30503431 -11 6 C-7.58983503 3.13546142 -4.09305456 1.65296434 0 0 Z " fill="#0D58A3" transform="translate(53,180)"/>
<path d="M0 0 C2.31 0 4.62 0 7 0 C7 0.66 7 1.32 7 2 C5.27559635 2.98753064 3.54524974 3.96468806 1.8125 4.9375 C0.84957031 5.48277344 -0.11335938 6.02804688 -1.10546875 6.58984375 C-3.8346935 7.91946606 -5.99435147 8.67061386 -9 9 C-11.3125 8.0625 -11.3125 8.0625 -13 7 C-10.01121246 5.00747497 -8.42113788 4.6675391 -5 4 C-1.82547916 2.74202164 -1.82547916 2.74202164 0 0 Z " fill="#2094E8" transform="translate(63,171)"/>
<path d="M0 0 C0.103125 0.639375 0.20625 1.27875 0.3125 1.9375 C0.6528125 2.9584375 0.6528125 2.9584375 1 4 C1.99 4.33 2.98 4.66 4 5 C3.37351562 5.09796875 2.74703125 5.1959375 2.1015625 5.296875 C1.28429687 5.44640625 0.46703125 5.5959375 -0.375 5.75 C-1.18710938 5.88921875 -1.99921875 6.0284375 -2.8359375 6.171875 C-5.17709092 6.81749261 -5.17709092 6.81749261 -6.2890625 9.078125 C-6.52367188 9.71234375 -6.75828125 10.3465625 -7 11 C-7 10.34 -7 9.68 -7 9 C-8.32 8.67 -9.64 8.34 -11 8 C-11 7.01 -11 6.02 -11 5 C-10.01 5 -9.02 5 -8 5 C-8 4.34 -8 3.68 -8 3 C-5.36 2.67 -2.72 2.34 0 2 C0 1.34 0 0.68 0 0 Z " fill="#12357C" transform="translate(121,119)"/>
<path d="M0 0 C0.66 0 1.32 0 2 0 C3.02028865 1.31787285 4.01971384 2.65210653 5 4 C5.66 4.33 6.32 4.66 7 5 C7 5.66 7 6.32 7 7 C9.31 7.33 11.62 7.66 14 8 C14 8.33 14 8.66 14 9 C15.65 9.33 17.3 9.66 19 10 C19 10.33 19 10.66 19 11 C6.93962004 11.57028066 6.93962004 11.57028066 3 8 C0.8522582 5.03759752 0 3.68553144 0 0 Z " fill="#9BC2D8" transform="translate(20,181)"/>
<path d="M0 0 C0 0.99 0 1.98 0 3 C-0.99 3 -1.98 3 -3 3 C-3.7115625 3.7734375 -3.7115625 3.7734375 -4.4375 4.5625 C-4.953125 5.036875 -5.46875 5.51125 -6 6 C-8.125 5.625 -8.125 5.625 -10 5 C-10.33 5.33 -10.66 5.66 -11 6 C-12.66617115 6.04063832 -14.33388095 6.042721 -16 6 C-16 5.34 -16 4.68 -16 4 C-15.01 4 -14.02 4 -13 4 C-13 3.34 -13 2.68 -13 2 C-8.50343896 -0.24828052 -4.92127034 -0.16682272 0 0 Z " fill="#2A5496" transform="translate(109,125)"/>
<path d="M0 0 C0.721875 0.474375 1.44375 0.94875 2.1875 1.4375 C4.89475226 2.94152903 6.96194275 3.56599182 10 4 C9.67 4.66 9.34 5.32 9 6 C9.33 6.99 9.66 7.98 10 9 C2.58460599 8.51374465 2.58460599 8.51374465 -0.0625 6.1875 C-1.16192618 3.62217225 -1.00516936 2.55861291 0 0 Z " fill="#60C4F9" transform="translate(25,180)"/>
<path d="M0 0 C0 0.33 0 0.66 0 1 C-0.65226562 1.19335938 -1.30453125 1.38671875 -1.9765625 1.5859375 C-6.6771398 2.98640448 -11.35840891 4.41208726 -16 6 C-16 4.68 -16 3.36 -16 2 C-5.62642369 -1.62870159 -5.62642369 -1.62870159 0 0 Z " fill="#67ACD1" transform="translate(60,140)"/>
<path d="M0 0 C0.61746094 0.19335938 1.23492187 0.38671875 1.87109375 0.5859375 C7.54348868 2.32996151 13.19193035 3.78217894 19 5 C19 5.66 19 6.32 19 7 C14.48382401 7.07654536 10.40914783 7.10228696 6 6 C6 5.34 6 4.68 6 4 C4.35 3.67 2.7 3.34 1 3 C0.67 2.01 0.34 1.02 0 0 Z " fill="#4F5058" transform="translate(93,113)"/>
<path d="M0 0 C5.59305858 1.39826464 9.71990921 4.24087492 14 8 C14.33 8.66 14.66 9.32 15 10 C13.68 9.67 12.36 9.34 11 9 C11 8.34 11 7.68 11 7 C6.02093741 6.24572703 6.02093741 6.24572703 1 6 C0.34 5.67 -0.32 5.34 -1 5 C-0.67 3.35 -0.34 1.7 0 0 Z " fill="#79C1DB" transform="translate(152,97)"/>
<path d="M0 0 C0 3 0 3 0 3 Z M-3 5 C-3.99068216 7.59719377 -4.51689019 8.76257032 -7.05859375 10.01171875 C-8.23615234 10.34623047 -8.23615234 10.34623047 -9.4375 10.6875 C-10.61119141 11.03361328 -10.61119141 11.03361328 -11.80859375 11.38671875 C-12.89333984 11.69029297 -12.89333984 11.69029297 -14 12 C-14.99 12.33 -15.98 12.66 -17 13 C-15.64284732 8.92854196 -13.66107545 8.11215891 -10 6 C-7.54077916 5.32930341 -5.53392869 5 -3 5 Z " fill="#2885D3" transform="translate(127,142)"/>
<path d="M0 0 C-0.33 0.99 -0.66 1.98 -1 3 C-2.33076989 3.34342449 -3.66431979 3.67619874 -5 4 C-5.99 5.485 -5.99 5.485 -7 7 C-9.62289433 8.21056661 -12.25938661 9.0864622 -15 10 C-15 10.66 -15 11.32 -15 12 C-15.66 11.67 -16.32 11.34 -17 11 C-6.30555556 0 -6.30555556 0 0 0 Z " fill="#5780B3" transform="translate(36,51)"/>
<path d="M0 0 C2.24469451 0.91190715 3.42203265 1.99783754 5 3.8125 C4.01 5.2975 4.01 5.2975 3 6.8125 C0.69 6.4825 -1.62 6.1525 -4 5.8125 C-4.33 4.4925 -4.66 3.1725 -5 1.8125 C-2 -0.1875 -2 -0.1875 0 0 Z " fill="#0D6ECB" transform="translate(109,154.1875)"/>
<path d="M0 0 C2.31 0 4.62 0 7 0 C7.33 0.66 7.66 1.32 8 2 C6.625 3.5 6.625 3.5 5 5 C4.34 5 3.68 5 3 5 C3 4.34 3 3.68 3 3 C-0.465 4.485 -0.465 4.485 -4 6 C-4.33 5.34 -4.66 4.68 -5 4 C-4.67 3.34 -4.34 2.68 -4 2 C-2.68 2 -1.36 2 0 2 C0 1.34 0 0.68 0 0 Z " fill="#0661C5" transform="translate(90,131)"/>
<path d="M0 0 C3 3 6 6 9 9 C9.66 8.34 10.32 7.68 11 7 C11.99 7.99 12.98 8.98 14 10 C13.01 10.495 13.01 10.495 12 11 C12.99 11.99 13.98 12.98 15 14 C8.79635523 12.72745748 4.0325536 8.74945202 0 4 C0 2.68 0 1.36 0 0 Z " fill="#3363A9" transform="translate(60,94)"/>
<path d="M0 0 C-0.66 0 -1.32 0 -2 0 C-2 0.99 -2 1.98 -2 3 C-3.98 3.33 -5.96 3.66 -8 4 C-8.33 4.99 -8.66 5.98 -9 7 C-9.99 7 -10.98 7 -12 7 C-11.9375 4.6875 -11.9375 4.6875 -11 2 C-4.20105026 -1.84846212 -4.20105026 -1.84846212 0 0 Z " fill="#04175A" transform="translate(138,25)"/>
<path d="M0 0 C0.99 0.33 1.98 0.66 3 1 C1.87687034 4.36938898 0.46825907 5.53174093 -2 8 C-2.33 8.99 -2.66 9.98 -3 11 C-3.66 11 -4.32 11 -5 11 C-5.33 11.99 -5.66 12.98 -6 14 C-5.87952582 8.97294083 -5.75412763 5.90127449 -2.4375 1.9375 C-1.633125 1.298125 -0.82875 0.65875 0 0 Z " fill="#99CAE2" transform="translate(28,149)"/>
<path d="M0 0 C0.66 0 1.32 0 2 0 C2.75 2.25 2.75 2.25 3 5 C1.1875 7.3125 1.1875 7.3125 -1 9 C-1.66 9 -2.32 9 -3 9 C-3 9.66 -3 10.32 -3 11 C-4.65 11.66 -6.3 12.32 -8 13 C-7.50628906 12.22914063 -7.01257813 11.45828125 -6.50390625 10.6640625 C-5.86324219 9.66117188 -5.22257812 8.65828125 -4.5625 7.625 C-3.92441406 6.62726563 -3.28632812 5.62953125 -2.62890625 4.6015625 C-1.03100789 2.14169479 -1.03100789 2.14169479 0 0 Z " fill="#64ADE4" transform="translate(128,132)"/>
<path d="M0 0 C1.98 0 3.96 0 6 0 C7.97094808 4.92737019 8.1799928 8.78020872 8 14 C7.67 14 7.34 14 7 14 C6.67 10.7 6.34 7.4 6 4 C4.576875 4.2784375 4.576875 4.2784375 3.125 4.5625 C0 5 0 5 -2 4 C-1.34 2.68 -0.68 1.36 0 0 Z " fill="#6BB4DD" transform="translate(166,114)"/>
<path d="M0 0 C2.72923388 -0.0270817 5.45819637 -0.04687847 8.1875 -0.0625 C8.95642578 -0.07087891 9.72535156 -0.07925781 10.51757812 -0.08789062 C14.48526789 -0.10491934 18.12571234 0.01395885 22 1 C21.01 1.33 20.02 1.66 19 2 C18.67 2.66 18.34 3.32 18 4 C12.375 4.25 12.375 4.25 9 2 C6.72087062 1.54605448 6.72087062 1.54605448 4.3125 1.375 C3.50425781 1.30023438 2.69601563 1.22546875 1.86328125 1.1484375 C1.24839844 1.09945312 0.63351563 1.05046875 0 1 C0 0.67 0 0.34 0 0 Z " fill="#6CBDE0" transform="translate(120,92)"/>
<path d="M0 0 C5.44693314 -0.09688221 10.63904667 -0.12862175 16 1 C9.84807897 4.29567198 6.5983758 3.86953981 0 2 C0 1.34 0 0.68 0 0 Z " fill="#4FABDA" transform="translate(93,88)"/>
<path d="M0 0 C1.32 0 2.64 0 4 0 C4 0.66 4 1.32 4 2 C5.65 2 7.3 2 9 2 C9.66 3.32 10.32 4.64 11 6 C10.01 6.66 9.02 7.32 8 8 C5.5 6.625 5.5 6.625 3 5 C3 4.34 3 3.68 3 3 C2.01 2.67 1.02 2.34 0 2 C0 1.34 0 0.68 0 0 Z " fill="#075AA0" transform="translate(107,97)"/>
<path d="M0 0 C0.33 0.99 0.66 1.98 1 3 C1.99 3 2.98 3 4 3 C3.67 3.99 3.34 4.98 3 6 C0.69 6.33 -1.62 6.66 -4 7 C-4.66 5.35 -5.32 3.7 -6 2 C-4.7934375 1.7834375 -4.7934375 1.7834375 -3.5625 1.5625 C-1.07896294 1.25864751 -1.07896294 1.25864751 0 0 Z " fill="#1566B4" transform="translate(146,152)"/>
<path d="M0 0 C-0.99 0 -1.98 0 -3 0 C-3 0.66 -3 1.32 -3 2 C-2.01 2.33 -1.02 2.66 0 3 C-0.33 4.32 -0.66 5.64 -1 7 C-3 6 -3 6 -4 4 C-5.98 4 -7.96 4 -10 4 C-10 3.01 -10 2.02 -10 1 C-3.71428571 -1.42857143 -3.71428571 -1.42857143 0 0 Z " fill="#3888CF" transform="translate(81,133)"/>
<path d="M0 0 C0.66 0.33 1.32 0.66 2 1 C2 1.99 2 2.98 2 4 C2.66 4 3.32 4 4 4 C4.33 5.98 4.66 7.96 5 10 C4.01 10.33 3.02 10.66 2 11 C0.23537317 7.91190305 0 6.76687864 0 3 C-1.32 3.33 -2.64 3.66 -4 4 C-2.68 2.68 -1.36 1.36 0 0 Z " fill="#228ACF" transform="translate(164,128)"/>
<path d="M0 0 C0.33 0.99 0.66 1.98 1 3 C4.465 2.505 4.465 2.505 8 2 C8 4.31 8 6.62 8 9 C5 8 5 8 3 6 C2.01 6 1.02 6 0 6 C0 4.02 0 2.04 0 0 Z " fill="#011D5A" transform="translate(122,117)"/>
<path d="M0 0 C2.64 0.33 5.28 0.66 8 1 C8.33 2.32 8.66 3.64 9 5 C6.36 4.67 3.72 4.34 1 4 C0.67 4.66 0.34 5.32 0 6 C0 4 0 2 0 0 Z " fill="#0D5EB4" transform="translate(120,160)"/>
<path d="M0 0 C1.09570312 0.00902344 2.19140625 0.01804688 3.3203125 0.02734375 C4.16335937 0.03894531 5.00640625 0.05054688 5.875 0.0625 C4.875 2.0625 4.875 2.0625 2.80859375 2.9140625 C1.57302734 3.29691406 1.57302734 3.29691406 0.3125 3.6875 C-0.92693359 4.07808594 -0.92693359 4.07808594 -2.19140625 4.4765625 C-2.82949219 4.66992188 -3.46757813 4.86328125 -4.125 5.0625 C-4.455 4.0725 -4.785 3.0825 -5.125 2.0625 C-6.115 1.7325 -7.105 1.4025 -8.125 1.0625 C-5.36047967 -0.31976016 -3.0788637 -0.03275387 0 0 Z " fill="#2579CB" transform="translate(91.125,33.9375)"/>
<path d="M0 0 C-2.97119894 1.58924595 -5.89570712 2.67067166 -9.125 3.625 C-9.99382812 3.88539063 -10.86265625 4.14578125 -11.7578125 4.4140625 C-14 5 -14 5 -16 5 C-16 4.34 -16 3.68 -16 3 C-14.02 2.67 -12.04 2.34 -10 2 C-10 1.34 -10 0.68 -10 0 C-6.30581799 -1.231394 -3.7943739 -0.64432764 0 0 Z " fill="#4E75AB" transform="translate(128,165)"/>
<path d="M0 0 C-0.33 1.32 -0.66 2.64 -1 4 C-5.455 4.495 -5.455 4.495 -10 5 C-10.33 4.01 -10.66 3.02 -11 2 C-7.17010894 0.19769832 -4.21878192 -0.19622241 0 0 Z " fill="#5BBEEE" transform="translate(43,147)"/>
<path d="M0 0 C2.97 0.495 2.97 0.495 6 1 C5.67 1.66 5.34 2.32 5 3 C5.99 3.33 6.98 3.66 8 4 C4.00439392 6.83022097 0.57262677 5.76210446 -4 5 C-3.01 4.34 -2.02 3.68 -1 3 C-0.67 2.01 -0.34 1.02 0 0 Z " fill="#1452A6" transform="translate(96,168)"/>
<path d="M0 0 C5.19644079 1.59890486 10.06612142 3.74138003 15 6 C14.01 6.66 13.02 7.32 12 8 C12 7.34 12 6.68 12 6 C10.02 6.33 8.04 6.66 6 7 C6 6.01 6 5.02 6 4 C4.35 3.67 2.7 3.34 1 3 C0.67 2.01 0.34 1.02 0 0 Z " fill="#4B526D" transform="translate(77,106)"/>
<path d="M0 0 C2.10304477 -0.1080023 4.20766909 -0.18558987 6.3125 -0.25 C8.07013672 -0.31960937 8.07013672 -0.31960937 9.86328125 -0.390625 C13 0 13 0 14.91796875 2.015625 C15.27503906 2.67046875 15.63210937 3.3253125 16 4 C14.27014758 3.88487847 12.54111249 3.75744323 10.8125 3.625 C9.84957031 3.55539063 8.88664062 3.48578125 7.89453125 3.4140625 C4.98491062 2.99784147 2.67109226 2.20125904 0 1 C0 0.67 0 0.34 0 0 Z " fill="#626784" transform="translate(35,113)"/>
<path d="M0 0 C-1 2 -1 2 -3.109375 2.8515625 C-3.98078125 3.10679688 -4.8521875 3.36203125 -5.75 3.625 C-7.04164062 4.01558594 -7.04164062 4.01558594 -8.359375 4.4140625 C-10.99729006 4.99939868 -13.30801576 5.10651736 -16 5 C-15.01 4.67 -14.02 4.34 -13 4 C-13 3.34 -13 2.68 -13 2 C-8.46298506 0.54815522 -4.81938524 -0.23509196 0 0 Z " fill="#102C7F" transform="translate(124,64)"/>
<path d="M0 0 C0.33 0.66 0.66 1.32 1 2 C0.34 2 -0.32 2 -1 2 C-1 3.32 -1 4.64 -1 6 C-4.37097383 7.49821059 -6.20442119 8 -10 8 C-10 7.34 -10 6.68 -10 6 C-8.35 5.67 -6.7 5.34 -5 5 C-5.33 4.01 -5.66 3.02 -6 2 C-4.02 1.34 -2.04 0.68 0 0 Z " fill="#395899" transform="translate(146,56)"/>
<path d="M0 0 C-0.9375 1.9375 -0.9375 1.9375 -3 4 C-5.9858081 4.66174825 -8.94861869 4.87205948 -12 5 C-10.25939521 2.09899201 -9.15165006 1.0663469 -6 -0.3125 C-3 -1 -3 -1 0 0 Z " fill="#5081BF" transform="translate(58,43)"/>
<path d="M0 0 C0.99 0.33 1.98 0.66 3 1 C3 1.99 3 2.98 3 4 C4.32 4 5.64 4 7 4 C6.67 4.99 6.34 5.98 6 7 C3.69 6.67 1.38 6.34 -1 6 C-1.625 4.125 -1.625 4.125 -2 2 C-1.34 1.34 -0.68 0.68 0 0 Z " fill="#081C58" transform="translate(36,107)"/>
<path d="M0 0 C2.97 0.33 5.94 0.66 9 1 C8.67 2.32 8.34 3.64 8 5 C8.99 5.33 9.98 5.66 11 6 C6.87248551 5.39301257 3.6678852 3.96189209 0 2 C0 1.34 0 0.68 0 0 Z " fill="#7F7A94" transform="translate(77,84)"/>
<path d="M0 0 C0.94875 0.350625 1.8975 0.70125 2.875 1.0625 C-0.7691774 3.4919516 -2.83741272 3.22429575 -7.125 3.0625 C-7.455 3.7225 -7.785 4.3825 -8.125 5.0625 C-9.115 5.0625 -10.105 5.0625 -11.125 5.0625 C-11.125 4.0725 -11.125 3.0825 -11.125 2.0625 C-10.17625 1.753125 -9.2275 1.44375 -8.25 1.125 C-2.625 -0.7875 -2.625 -0.7875 0 0 Z " fill="#0B1547" transform="translate(85.125,74.9375)"/>
<path d="M0 0 C3.875 1.75 3.875 1.75 5 4 C3.35 5.65 1.7 7.3 0 9 C-1.0625 7.125 -1.0625 7.125 -2 5 C-1.67 4.34 -1.34 3.68 -1 3 C-0.34 3 0.32 3 1 3 C0.67 2.01 0.34 1.02 0 0 Z " fill="#237FE0" transform="translate(84,37)"/>
<path d="M0 0 C0 0.33 0 0.66 0 1 C-1.134375 1.12375 -2.26875 1.2475 -3.4375 1.375 C-5.2009375 1.684375 -5.2009375 1.684375 -7 2 C-7.33 2.66 -7.66 3.32 -8 4 C-11.3 4 -14.6 4 -18 4 C-12.09876585 0.0658439 -6.88057626 -0.27522305 0 0 Z " fill="#636C92" transform="translate(157,15)"/>
<path d="M0 0 C1.65 0 3.3 0 5 0 C5.33 1.65 5.66 3.3 6 5 C3.69 5.33 1.38 5.66 -1 6 C-0.67 5.34 -0.34 4.68 0 4 C0 3.67 0 3.34 0 3 C0 2.01 0 1.02 0 0 Z " fill="#0B4A94" transform="translate(124,114)"/>
<path d="M0 0 C1.65 0 3.3 0 5 0 C5.226875 0.61875 5.45375 1.2375 5.6875 1.875 C7.37929835 4.61410209 8.99244161 5.05024472 12 6 C12 6.66 12 7.32 12 8 C8.85262818 7.30058404 5.97411124 6.23921302 3 5 C3 4.34 3 3.68 3 3 C1.54166642 1.37485532 1.54166642 1.37485532 0 0 Z " fill="#253663" transform="translate(71,104)"/>
<path d="M0 0 C2.97 0.99 5.94 1.98 9 3 C9 3.99 9 4.98 9 6 C9.31088368 7.67099977 9.64080332 9.33871537 10 11 C6.40365256 7.50640535 3.16548033 3.88901869 0 0 Z " fill="#466A96" transform="translate(110,102)"/>
<path d="M0 0 C2.6877438 0.14209669 5.37513302 0.2885723 8.0625 0.4375 C8.81466797 0.47681641 9.56683594 0.51613281 10.34179688 0.55664062 C14.94698741 0.81580719 19.44366724 1.2799421 24 2 C24 2.33 24 2.66 24 3 C20.56265937 3.08703823 17.12560163 3.14040272 13.6875 3.1875 C12.71103516 3.21263672 11.73457031 3.23777344 10.72851562 3.26367188 C9.32182617 3.27817383 9.32182617 3.27817383 7.88671875 3.29296875 C7.02264404 3.3086792 6.15856934 3.32438965 5.26831055 3.34057617 C2.54981464 2.93240678 1.69636171 2.10407096 0 0 Z " fill="#A6CDE1" transform="translate(88,86)"/>
<path d="M0 0 C-0.99 0.33 -1.98 0.66 -3 1 C-3 1.66 -3 2.32 -3 3 C-7.65798604 4.20465156 -12.23649415 5.28547412 -17 6 C-12.3149827 1.90060986 -6.26086269 -0.58695588 0 0 Z " fill="#526B96" transform="translate(81,178)"/>
<path d="M0 0 C7.87006961 3.11832947 7.87006961 3.11832947 10 6 C10 6.66 10 7.32 10 8 C5.49197399 6.74194623 2.5087188 5.09592835 -1 2 C-0.67 1.34 -0.34 0.68 0 0 Z " fill="#45668D" transform="translate(100,94)"/>
<path d="M0 0 C2.475 0.495 2.475 0.495 5 1 C5 2.65 5 4.3 5 6 C3.02 6.99 3.02 6.99 1 8 C-0.35439668 5.29120665 -0.06501451 2.99066732 0 0 Z " fill="#2D5A95" transform="translate(13,90)"/>
<path d="M0 0 C4.40114397 0.50298788 6.71195019 2.08772731 10 5 C5.25 6.125 5.25 6.125 3 5 C3 4.34 3 3.68 3 3 C2.01 3 1.02 3 0 3 C0 2.01 0 1.02 0 0 Z " fill="#284269" transform="translate(85,86)"/>
<path d="M0 0 C-0.309375 0.598125 -0.61875 1.19625 -0.9375 1.8125 C-2.10209704 4.08956772 -2.10209704 4.08956772 -3 7 C-4.65 7.33 -6.3 7.66 -8 8 C-8 7.01 -8 6.02 -8 5 C-7.34 5 -6.68 5 -6 5 C-5.67 4.01 -5.34 3.02 -5 2 C-2 0 -2 0 0 0 Z " fill="#284A8F" transform="translate(153,53)"/>
<path d="M0 0 C-3.96 1.98 -3.96 1.98 -8 4 C-8.66 2.68 -9.32 1.36 -10 0 C-4.5 -2.25 -4.5 -2.25 0 0 Z " fill="#48A6E9" transform="translate(43,185)"/>
<path d="M0 0 C0.99 0 1.98 0 3 0 C3.33 1.32 3.66 2.64 4 4 C2.68 4.99 1.36 5.98 0 7 C-0.66 6.67 -1.32 6.34 -2 6 C-1.125 1.125 -1.125 1.125 0 0 Z " fill="#71CBF5" transform="translate(28,153)"/>
<path d="M0 0 C1.69752187 0.25245197 3.38471545 0.57645775 5.0625 0.9375 C5.98160156 1.13214844 6.90070312 1.32679688 7.84765625 1.52734375 C8.91306641 1.76130859 8.91306641 1.76130859 10 2 C6.99382731 5.00617269 4.17618402 4.59585316 0 5 C0.99 4.67 1.98 4.34 3 4 C3 3.34 3 2.68 3 2 C1.68 1.67 0.36 1.34 -1 1 C-0.67 0.67 -0.34 0.34 0 0 Z " fill="#4E73A2" transform="translate(50,183)"/>
<path d="M0 0 C0.33 1.32 0.66 2.64 1 4 C-0.75 5.5625 -0.75 5.5625 -3 7 C-5.25 6.6875 -5.25 6.6875 -7 6 C-6.67 5.01 -6.34 4.02 -6 3 C-4.02 2.67 -2.04 2.34 0 2 C0 1.34 0 0.68 0 0 Z " fill="#3E92D3" transform="translate(125,141)"/>
<path d="M0 0 C1.32 0.33 2.64 0.66 4 1 C4 2.65 4 4.3 4 6 C4.66 6.33 5.32 6.66 6 7 C4.33333333 7 2.66666667 7 1 7 C0.67 4.69 0.34 2.38 0 0 Z " fill="#2D5C9B" transform="translate(120,111)"/>
<path d="M0 0 C2.31 1.98 4.62 3.96 7 6 C6.67 7.32 6.34 8.64 6 10 C2.46413986 6.82679218 0.41421969 4.83256305 0 0 Z " fill="#344361" transform="translate(63,94)"/>
<path d="M0 0 C2.12046792 3.53411321 2.53199289 6.94393835 3 11 C0.08772731 7.71195019 -1.49701212 5.40114397 -2 1 C-1.34 0.67 -0.68 0.34 0 0 Z " fill="#2665B6" transform="translate(57,86)"/>
<path d="M0 0 C1.32 0.66 2.64 1.32 4 2 C3.67 2.66 3.34 3.32 3 4 C2.01 4 1.02 4 0 4 C0 6.31 0 8.62 0 11 C-2 8 -2 8 -1.6875 4.375 C-1 1 -1 1 0 0 Z " fill="#08164D" transform="translate(61,79)"/>
<path d="M0 0 C0.66 0.33 1.32 0.66 2 1 C2 5 2 5 0.6875 6.75 C-1 8 -1 8 -4 8 C-2.25 2.25 -2.25 2.25 0 0 Z " fill="#4A75A9" transform="translate(18,63)"/>
<path d="M0 0 C3.63 0 7.26 0 11 0 C11 0.66 11 1.32 11 2 C5.70769231 4.21538462 5.70769231 4.21538462 2.125 3.125 C1.42375 2.75375 0.7225 2.3825 0 2 C0 1.34 0 0.68 0 0 Z " fill="#2975C5" transform="translate(112,26)"/>
<path d="M0 0 C-3.83325617 2.70582788 -6.32538149 3.32613618 -11 3 C-11 2.01 -11 1.02 -11 0 C-3.375 -1.125 -3.375 -1.125 0 0 Z " fill="#20467D" transform="translate(68,182)"/>
<path d="M0 0 C0 0.66 0 1.32 0 2 C-1.61992165 2.86375896 -3.24611861 3.71575854 -4.875 4.5625 C-6.23238281 5.27599609 -6.23238281 5.27599609 -7.6171875 6.00390625 C-8.40351562 6.33261719 -9.18984375 6.66132813 -10 7 C-10.66 6.67 -11.32 6.34 -12 6 C-10.6875 4.5 -10.6875 4.5 -9 3 C-8.01 3 -7.02 3 -6 3 C-5.34 2.34 -4.68 1.68 -4 1 C-2 0 -2 0 0 0 Z " fill="#0C6AC7" transform="translate(94,158)"/>
<path d="M0 0 C5.41538462 -0.36923077 5.41538462 -0.36923077 8.375 1.5 C8.91125 1.995 9.4475 2.49 10 3 C6.6875 3.6875 6.6875 3.6875 3 4 C1.0625 2.625 1.0625 2.625 0 1 C0 0.67 0 0.34 0 0 Z " fill="#374167" transform="translate(28,109)"/>
<path d="M0 0 C2.475 0.495 2.475 0.495 5 1 C5.33 3.31 5.66 5.62 6 8 C1.125 3.375 1.125 3.375 0 0 Z " fill="#4D6588" transform="translate(15,98)"/>
<path d="M0 0 C-3.14573677 2.09715785 -5.01456251 2.52004559 -8.6875 3.125 C-10.17830078 3.37636719 -10.17830078 3.37636719 -11.69921875 3.6328125 C-12.45847656 3.75398438 -13.21773438 3.87515625 -14 4 C-13.34 3.67 -12.68 3.34 -12 3 C-12 2.34 -12 1.68 -12 1 C-8.0186217 -0.3271261 -4.14954773 -0.06915913 0 0 Z " fill="#627192" transform="translate(121,68)"/>
<path d="M0 0 C-0.33 1.65 -0.66 3.3 -1 5 C-5.455 4.01 -5.455 4.01 -10 3 C-6.64781163 0.76520776 -4.01177204 0 0 0 Z " fill="#5E93C7" transform="translate(112,26)"/>
<path d="M0 0 C0.99 0 1.98 0 3 0 C1.68 1.32 0.36 2.64 -1 4 C-4.875 2.25 -4.875 2.25 -6 0 C-3 -1 -3 -1 0 0 Z " fill="#09418A" transform="translate(115,145)"/>
<path d="M0 0 C-1.1875 1.5 -1.1875 1.5 -3 3 C-5.5 3.1875 -5.5 3.1875 -8 3 C-8.99 3 -9.98 3 -11 3 C-7.83370093 -0.83288835 -4.68080329 -1.56026776 0 0 Z " fill="#1086E1" transform="translate(78,137)"/>
<path d="M0 0 C0.99 0 1.98 0 3 0 C3.66 1.65 4.32 3.3 5 5 C3.02 5.33 1.04 5.66 -1 6 C-0.67 4.02 -0.34 2.04 0 0 Z " fill="#075BB2" transform="translate(96,152)"/>
<path d="M0 0 C0 0.66 0 1.32 0 2 C-3.82320557 3.42258812 -6.91281305 4.24042276 -11 4 C-10.01 3.67 -9.02 3.34 -8 3 C-8 2.34 -8 1.68 -8 1 C-5.07175348 0.02391783 -3.04386724 -0.08226668 0 0 Z " fill="#435381" transform="translate(121,121)"/>
<path d="M0 0 C0.99 0.33 1.98 0.66 3 1 C2.6875 2.875 2.6875 2.875 2 5 C1.01 5.66 0.02 6.32 -1 7 C-1.66 5.68 -2.32 4.36 -3 3 C-2.34 3 -1.68 3 -1 3 C-0.67 2.01 -0.34 1.02 0 0 Z " fill="#3BB0E7" transform="translate(163,111)"/>
<path d="M0 0 C0.66 0.33 1.32 0.66 2 1 C1.67 1.99 1.34 2.98 1 4 C1.59793673 6.35188447 2.25881795 8.68925595 3 11 C2.01 11 1.02 11 0 11 C-1.62651522 7.74696956 -1.11453156 4.60774398 -1 1 C-0.67 0.67 -0.34 0.34 0 0 Z " fill="#687289" transform="translate(62,84)"/>
<path d="M0 0 C0 0.66 0 1.32 0 2 C-0.66 2 -1.32 2 -2 2 C-1.67 2.99 -1.34 3.98 -1 5 C-1.99 5.495 -1.99 5.495 -3 6 C-3.66 5.67 -4.32 5.34 -5 5 C-5.33 5.99 -5.66 6.98 -6 8 C-6.66 7.01 -7.32 6.02 -8 5 C-7.34 5 -6.68 5 -6 5 C-6 4.34 -6 3.68 -6 3 C-2.53846154 0 -2.53846154 0 0 0 Z " fill="#1F6ABF" transform="translate(27,58)"/>
<path d="M0 0 C1.65 0.33 3.3 0.66 5 1 C5 1.33 5 1.66 5 2 C6.65 2.33 8.3 2.66 10 3 C10 3.33 10 3.66 10 4 C6.37 4 2.74 4 -1 4 C-0.67 2.68 -0.34 1.36 0 0 Z " fill="#789FC6" transform="translate(29,188)"/>
<path d="M0 0 C0.99 0.66 1.98 1.32 3 2 C3 3.32 3 4.64 3 6 C0.36 5.67 -2.28 5.34 -5 5 C-4.67 4.34 -4.34 3.68 -4 3 C-3.34 3 -2.68 3 -2 3 C-1.34 2.01 -0.68 1.02 0 0 Z " fill="#57B6EF" transform="translate(32,183)"/>
<path d="M0 0 C0.99 0 1.98 0 3 0 C2.67 1.32 2.34 2.64 2 4 C0.02 4.33 -1.96 4.66 -4 5 C-4 4.01 -4 3.02 -4 2 C-2.68 2 -1.36 2 0 2 C0 1.34 0 0.68 0 0 Z " fill="#1072CA" transform="translate(152,150)"/>
<path d="M0 0 C3.465 1.485 3.465 1.485 7 3 C5.68 3.99 4.36 4.98 3 6 C2.34 5.67 1.68 5.34 1 5 C1 4.34 1 3.68 1 3 C0.34 2.67 -0.32 2.34 -1 2 C-0.67 1.34 -0.34 0.68 0 0 Z " fill="#042976" transform="translate(62,102)"/>
<path d="M0 0 C2.31 0.33 4.62 0.66 7 1 C7 1.33 7 1.66 7 2 C5.42085985 2.53341184 3.83645613 3.05125763 2.25 3.5625 C1.36828125 3.85253906 0.4865625 4.14257812 -0.421875 4.44140625 C-3.07834316 5.01697435 -4.47031106 4.89248371 -7 4 C-5.02 3.67 -3.04 3.34 -1 3 C-0.67 2.01 -0.34 1.02 0 0 Z " fill="#6E748B" transform="translate(78,77)"/>
<path d="M0 0 C-2.19955316 2.52948613 -3.72870478 3.36684609 -7 4 C-7.99 4.495 -7.99 4.495 -9 5 C-9 3.68 -9 2.36 -9 1 C-3.375 -1.125 -3.375 -1.125 0 0 Z " fill="#011862" transform="translate(104,40)"/>
<path d="M0 0 C-2.88628401 1.57554035 -5.53342384 2.46276373 -8.75 3.125 C-9.94882813 3.37636719 -9.94882813 3.37636719 -11.171875 3.6328125 C-11.77515625 3.75398437 -12.3784375 3.87515625 -13 4 C-9.41420832 -0.98892755 -5.61771415 -0.43213186 0 0 Z " fill="#134CA2" transform="translate(80,177)"/>
<path d="M0 0 C-1.45264038 0.8638129 -2.9123163 1.71580454 -4.375 2.5625 C-5.59316406 3.27599609 -5.59316406 3.27599609 -6.8359375 4.00390625 C-7.55007812 4.33261719 -8.26421875 4.66132813 -9 5 C-9.66 4.67 -10.32 4.34 -11 4 C-8.00099197 -0.49851204 -5.10249759 -1.5198929 0 0 Z " fill="#618BB7" transform="translate(160,153)"/>
<path d="M0 0 C2 1 2 1 4 4 C3 5 3 5 -0.5625 5.0625 C-1.696875 5.041875 -2.83125 5.02125 -4 5 C-3.34 4.67 -2.68 4.34 -2 4 C-2 3.34 -2 2.68 -2 2 C-1.34 2 -0.68 2 0 2 C0 1.34 0 0.68 0 0 Z " fill="#09499A" transform="translate(109,146)"/>
<path d="M0 0 C0 0.66 0 1.32 0 2 C-0.66 2 -1.32 2 -2 2 C-2.33 2.99 -2.66 3.98 -3 5 C-4.68496298 4.03114628 -6.35178756 3.03013277 -8 2 C-8 1.67 -8 1.34 -8 1 C-2.25 0 -2.25 0 0 0 Z M-10 2 C-8 3 -8 3 -8 3 Z " fill="#022875" transform="translate(124,124)"/>
<path d="M0 0 C2.475 0.495 2.475 0.495 5 1 C5.33 2.32 5.66 3.64 6 5 C4.35 5 2.7 5 1 5 C0.67 3.35 0.34 1.7 0 0 Z " fill="#09549F" transform="translate(122,109)"/>
<path d="M0 0 C-3.00440021 2.00293347 -4.70993945 2.49271626 -8.1875 3.125 C-9.53908203 3.37636719 -9.53908203 3.37636719 -10.91796875 3.6328125 C-11.60503906 3.75398438 -12.29210937 3.87515625 -13 4 C-8.32733754 0.41762545 -5.97976363 -0.11073636 0 0 Z " fill="#7A86A5" transform="translate(135,64)"/>
<path d="M0 0 C1.65 0.33 3.3 0.66 5 1 C4.67 1.99 4.34 2.98 4 4 C2.35 4 0.7 4 -1 4 C-0.67 2.68 -0.34 1.36 0 0 Z " fill="#041B5D" transform="translate(67,60)"/>
<path d="M0 0 C1.3921875 0.3403125 1.3921875 0.3403125 2.8125 0.6875 C0.42676621 2.57963369 -1.25925348 3.71141783 -4.1875 4.6875 C-4.8475 4.0275 -5.5075 3.3675 -6.1875 2.6875 C-4.14987265 -0.14253799 -3.59070275 -0.35202968 0 0 Z " fill="#389DEB" transform="translate(47.1875,180.3125)"/>
<path d="M0 0 C0.66 0.33 1.32 0.66 2 1 C1.67 2.65 1.34 4.3 1 6 C-0.32 5.67 -1.64 5.34 -3 5 C-2.625 3.0625 -2.625 3.0625 -2 1 C-1.34 0.67 -0.68 0.34 0 0 Z " fill="#2C499A" transform="translate(157,47)"/>
<path d="M0 0 C0.33 0.99 0.66 1.98 1 3 C-1.31 2.67 -3.62 2.34 -6 2 C-6 1.34 -6 0.68 -6 0 C-3 -1 -3 -1 0 0 Z " fill="#50A1D6" transform="translate(64,138)"/>
<path d="M0 0 C3.3 0.99 6.6 1.98 10 3 C6 5 6 5 3.875 4.875 C2 4 2 4 0 0 Z " fill="#666474" transform="translate(93,113)"/>
<path d="M0 0 C3.66881155 0.70554068 6.70450534 2.27735506 10 4 C7.33438378 4.98726527 6.09873015 5.0275526 3.3125 4.25 C1 3 1 3 0 0 Z " fill="#062263" transform="translate(70,107)"/>
<path d="M0 0 C1.32 0.33 2.64 0.66 4 1 C4.66 3.31 5.32 5.62 6 8 C5.01 7.67 4.02 7.34 3 7 C3 6.34 3 5.68 3 5 C2.34 4.67 1.68 4.34 1 4 C1.33 3.34 1.66 2.68 2 2 C1.34 2 0.68 2 0 2 C0 1.34 0 0.68 0 0 Z " fill="#54BDEC" transform="translate(159,103)"/>
<path d="M0 0 C2.31 0.33 4.62 0.66 7 1 C3.55549263 3.29633824 1.06187717 3.54016485 -3 4 C-2.01 3.67 -1.02 3.34 0 3 C0 2.01 0 1.02 0 0 Z " fill="#606B90" transform="translate(99,71)"/>
<path d="M0 0 C-2.71182212 2.60334924 -3.89133813 2.99456691 -7.75 3.1875 C-8.8225 3.125625 -9.895 3.06375 -11 3 C-4.33333333 -1.44444444 -4.33333333 -1.44444444 0 0 Z " fill="#668FBF" transform="translate(71,39)"/>
<path d="M0 0 C2.1875 0.3125 2.1875 0.3125 4 1 C4 1.99 4 2.98 4 4 C1.69 3.67 -0.62 3.34 -3 3 C-1.75 1.4375 -1.75 1.4375 0 0 Z " fill="#246BBA" transform="translate(71,38)"/>
<path d="M0 0 C0 0.66 0 1.32 0 2 C-0.66 2 -1.32 2 -2 2 C-2.33 2.99 -2.66 3.98 -3 5 C-5.97 4.505 -5.97 4.505 -9 4 C-6.43425105 1.43425105 -3.68548192 0 0 0 Z " fill="#237FDC" transform="translate(99,34)"/>
<path d="M0 0 C2.79872437 2.52788007 4.45773019 4.20411134 5 8 C4.34 8 3.68 8 3 8 C2.67 7.34 2.34 6.68 2 6 C1.01 5.67 0.02 5.34 -1 5 C-0.67 3.35 -0.34 1.7 0 0 Z " fill="#566796" transform="translate(158,16)"/>
<path d="M0 0 C2.97 0 5.94 0 9 0 C5.55549263 2.29633824 3.06187717 2.54016485 -1 3 C-0.67 2.01 -0.34 1.02 0 0 Z " fill="#5D6D95" transform="translate(40,188)"/>
<path d="M0 0 C0.598125 0.20625 1.19625 0.4125 1.8125 0.625 C-0.36174117 3.12537734 -1.91795798 4.06128586 -5.1875 4.625 C-5.1875 3.635 -5.1875 2.645 -5.1875 1.625 C-2.1875 -0.375 -2.1875 -0.375 0 0 Z " fill="#1C75C7" transform="translate(109.1875,154.375)"/>
<path d="M0 0 C-0.99 0 -1.98 0 -3 0 C-3 0.66 -3 1.32 -3 2 C-5.3125 2.625 -5.3125 2.625 -8 3 C-8.99 2.34 -9.98 1.68 -11 1 C-3.57142857 -1.42857143 -3.57142857 -1.42857143 0 0 Z " fill="#6B91C0" transform="translate(96,129)"/>
<path d="M0 0 C0.66 0.33 1.32 0.66 2 1 C2 2.65 2 4.3 2 6 C1.01 6.495 1.01 6.495 0 7 C0 5.68 0 4.36 0 3 C-1.32 3.33 -2.64 3.66 -4 4 C-2.68 2.68 -1.36 1.36 0 0 Z " fill="#298ED5" transform="translate(164,128)"/>
<path d="M0 0 C1.32 0.66 2.64 1.32 4 2 C3.34 2.66 2.68 3.32 2 4 C2.99 4.99 3.98 5.98 5 7 C3.02 6.34 1.04 5.68 -1 5 C-0.67 3.35 -0.34 1.7 0 0 Z " fill="#4B5F8C" transform="translate(70,101)"/>
<path d="M0 0 C1.32 0 2.64 0 4 0 C4 0.66 4 1.32 4 2 C4.66 2.33 5.32 2.66 6 3 C5.67 3.99 5.34 4.98 5 6 C4.34 5.67 3.68 5.34 3 5 C3 4.34 3 3.68 3 3 C2.01 2.67 1.02 2.34 0 2 C0 1.34 0 0.68 0 0 Z " fill="#0A4E92" transform="translate(107,97)"/>
<path d="M0 0 C2.31 0.33 4.62 0.66 7 1 C7 2.65 7 4.3 7 6 C6.34 6 5.68 6 5 6 C4.67 5.01 4.34 4.02 4 3 C1.98491642 2.26676204 1.98491642 2.26676204 0 2 C0 1.34 0 0.68 0 0 Z " fill="#0A3D86" transform="translate(15,96)"/>
<path d="M0 0 C1.9375 0.75 1.9375 0.75 4 2 C4.75 4.125 4.75 4.125 5 6 C4.01 6 3.02 6 2 6 C0 3 0 3 0 0 Z " fill="#0B479F" transform="translate(54,91)"/>
<path d="M0 0 C0 0.66 0 1.32 0 2 C-2.8125 2.625 -2.8125 2.625 -6 3 C-6.99 2.34 -7.98 1.68 -9 1 C-5.92677456 0.08941469 -3.19902639 -0.08886184 0 0 Z " fill="#0A1F59" transform="translate(109,69)"/>
<path d="M0 0 C0.8353125 0.37125 0.8353125 0.37125 1.6875 0.75 C1.3575 1.41 1.0275 2.07 0.6875 2.75 C-1.96110427 3.34355614 -4.60447322 3.49209269 -7.3125 3.75 C-2.88173077 -0.31153846 -2.88173077 -0.31153846 0 0 Z " fill="#08297A" transform="translate(94.3125,42.25)"/>
<path d="M0 0 C-7.5 5 -7.5 5 -10 5 C-10 4.01 -10 3.02 -10 2 C-6.49223216 0.39644899 -3.85645121 -0.22036864 0 0 Z " fill="#3278D1" transform="translate(103,37)"/>
<path d="M0 0 C1.65 0 3.3 0 5 0 C4.67 0.99 4.34 1.98 4 3 C0.9375 4.1875 0.9375 4.1875 -2 5 C-1.34 3.35 -0.68 1.7 0 0 Z " fill="#4470B1" transform="translate(133,19)"/>
<path d="M0 0 C0.33 0.99 0.66 1.98 1 3 C-1.375 3.625 -1.375 3.625 -4 4 C-4.66 3.34 -5.32 2.68 -6 2 C-3 0 -3 0 0 0 Z " fill="#1556A6" transform="translate(139,158)"/>
<path d="M0 0 C0.99 0 1.98 0 3 0 C2.67 1.32 2.34 2.64 2 4 C0.35 4 -1.3 4 -3 4 C-3 3.34 -3 2.68 -3 2 C-2.01 2 -1.02 2 0 2 C0 1.34 0 0.68 0 0 Z " fill="#255EA5" transform="translate(96,127)"/>
<path d="M0 0 C2.1879642 3.28194629 2.18876203 4.22475937 2 8 C2 8.99 2 9.98 2 11 C1.34 10.67 0.68 10.34 0 10 C0 6.7 0 3.4 0 0 Z " fill="#4CB3E6" transform="translate(132,117)"/>
<path d="M0 0 C1.9375 0.3125 1.9375 0.3125 4 1 C4.33 1.99 4.66 2.98 5 4 C3.35 4 1.7 4 0 4 C0 2.68 0 1.36 0 0 Z " fill="#0E2B6A" transform="translate(25,104)"/>
<path d="M0 0 C4.455 0.99 4.455 0.99 9 2 C9 2.33 9 2.66 9 3 C6.03 3 3.06 3 0 3 C0 2.01 0 1.02 0 0 Z " fill="#7FC4DE" transform="translate(143,94)"/>
<path d="M0 0 C1.65 0 3.3 0 5 0 C5.33 0.99 5.66 1.98 6 3 C4.02 3 2.04 3 0 3 C0 2.01 0 1.02 0 0 Z " fill="#2985DE" transform="translate(111,28)"/>
<path d="" fill="#FFFFFF" transform="translate(0,0)"/>
<path d="" fill="#FFFFFF" transform="translate(0,0)"/>
<path d="" fill="#FFFFFF" transform="translate(0,0)"/>
<path d="" fill="#FFFFFF" transform="translate(0,0)"/>
<path d="" fill="#FFFFFF" transform="translate(0,0)"/>
<path d="" fill="#FFFFFF" transform="translate(0,0)"/>
<path d="" fill="#FFFFFF" transform="translate(0,0)"/>
<path d="" fill="#FFFFFF" transform="translate(0,0)"/>
<path d="" fill="#FFFFFF" transform="translate(0,0)"/>
<path d="" fill="#FFFFFF" transform="translate(0,0)"/>
<path d="" fill="#FFFFFF" transform="translate(0,0)"/>
<path d="" fill="#FFFFFF" transform="translate(0,0)"/>
<path d="" fill="#FFFFFF" transform="translate(0,0)"/>
<path d="" fill="#FFFFFF" transform="translate(0,0)"/>
<path d="" fill="#FFFFFF" transform="translate(0,0)"/>
<path d="" fill="#FFFFFF" transform="translate(0,0)"/>
<path d="" fill="#FFFFFF" transform="translate(0,0)"/>
<path d="" fill="#FFFFFF" transform="translate(0,0)"/>
<path d="" fill="#FFFFFF" transform="translate(0,0)"/>
<path d="" fill="#FFFFFF" transform="translate(0,0)"/>
<path d="" fill="#FFFFFF" transform="translate(0,0)"/>
<path d="" fill="#FFFFFF" transform="translate(0,0)"/>
<path d="" fill="#FFFFFF" transform="translate(0,0)"/>
<path d="" fill="#FFFFFF" transform="translate(0,0)"/>
<path d="" fill="#FFFFFF" transform="translate(0,0)"/>
<path d="" fill="#FFFFFF" transform="translate(0,0)"/>
<path d="" fill="#FFFFFF" transform="translate(0,0)"/>
<path d="" fill="#FFFFFF" transform="translate(0,0)"/>
<path d="" fill="#FFFFFF" transform="translate(0,0)"/>
<path d="" fill="#FFFFFF" transform="translate(0,0)"/>
<path d="" fill="#FFFFFF" transform="translate(0,0)"/>
<path d="" fill="#FFFFFF" transform="translate(0,0)"/>
<path d="" fill="#FFFFFF" transform="translate(0,0)"/>
<path d="" fill="#FFFFFF" transform="translate(0,0)"/>
<path d="" fill="#FFFFFF" transform="translate(0,0)"/>
<path d="" fill="#FFFFFF" transform="translate(0,0)"/>
<path d="" fill="#FFFFFF" transform="translate(0,0)"/>
<path d="" fill="#FFFFFF" transform="translate(0,0)"/>
<path d="" fill="#FFFFFF" transform="translate(0,0)"/>
<path d="" fill="#FFFFFF" transform="translate(0,0)"/>
<path d="" fill="#FFFFFF" transform="translate(0,0)"/>
<path d="" fill="#FFFFFF" transform="translate(0,0)"/>
<path d="" fill="#FFFFFF" transform="translate(0,0)"/>
</svg>
